<?xml version="1.0" standalone="no"?><!DOCTYPE svg PUBLIC "-//W3C//DTD SVG 1.1//EN" "http://www.w3.org/Graphics/SVG/1.1/DTD/svg11.dtd">
<svg class="icon" width="200px" height="200.00px" viewBox="0 0 1024 1024" version="1.1" xmlns="http://www.w3.org/2000/svg">
    <path d="M85.333333 341.333333V61.866667a19.2 19.2 0 0 1 19.2-19.2h46.933334a19.2 19.2 0 0 1 19.2 19.2v217.6a19.2 19.2 0 0 0 19.2 19.2h644.266666a19.2 19.2 0 0 0 19.2-19.2V61.866667a19.2 19.2 0 0 1 19.2-19.2h46.933334a19.2 19.2 0 0 1 19.2 19.2V341.333333a42.666667 42.666667 0 0 1-42.666667 42.666667H128a42.666667 42.666667 0 0 1-42.666667-42.666667zM85.333333 482.133333a12.8 12.8 0 0 1 12.8-12.8h187.733334a12.8 12.8 0 0 1 12.8 12.8v59.733334a12.8 12.8 0 0 1-12.8 12.8H98.133333a12.8 12.8 0 0 1-12.8-12.8v-59.733334zM725.333333 482.133333a12.8 12.8 0 0 1 12.8-12.8h187.733334a12.8 12.8 0 0 1 12.8 12.8v59.733334a12.8 12.8 0 0 1-12.8 12.8h-187.733334a12.8 12.8 0 0 1-12.8-12.8v-59.733334zM354.133333 469.333333a12.8 12.8 0 0 0-12.8 12.8v59.733334a12.8 12.8 0 0 0 12.8 12.8h315.733334a12.8 12.8 0 0 0 12.8-12.8v-59.733334a12.8 12.8 0 0 0-12.8-12.8H354.133333zM872.533333 981.333333a19.2 19.2 0 0 1-19.2-19.2v-48.576a19.2 19.2 0 0 0-4.672-12.544l-145.984-169.024a19.2 19.2 0 0 0-14.506666-6.656H189.866667a19.2 19.2 0 0 0-19.2 19.2v217.6a19.2 19.2 0 0 1-19.2 19.2H104.533333a19.2 19.2 0 0 1-19.2-19.2V682.666667a42.666667 42.666667 0 0 1 42.666667-42.666667h588.48a42.666667 42.666667 0 0 1 32.277333 14.784l179.541334 207.872A42.666667 42.666667 0 0 1 938.666667 890.538667V962.133333a19.2 19.2 0 0 1-19.2 19.2h-46.933334z" fill="#8a8a8a" />
</svg>