<svg xmlns="http://www.w3.org/2000/svg" xml:space="preserve" width="100%" height="100%" version="1.1"
    style="shape-rendering:geometricPrecision; text-rendering:geometricPrecision; image-rendering:optimizeQuality; fill-rule:evenodd; clip-rule:evenodd"
    viewBox="0 0 60 60" xmlns:xlink="http://www.w3.org/1999/xlink">
    <defs>
        <style type="text/css">
            <![CDATA[
                .str0 {stroke:currentColor; stroke-width:1; stroke-linecap:round; stroke-linejoin:round}
                .fil0 {fill:none}
                .fil1 {fill:#8fbffa}
                .fil2 {fill:#2859c5}
            ]]>
        </style>
    </defs>
    <desc>Correct Password Streamline Icon: https://streamlinehq.com</desc>
    <g id="correct-password--approved-login-password-success-textbox-touch-type-check-correct">
        <path id="Subtract" class="fil1 str0" d="M10.898742857142857 0.8347114285714285C16.02282857142857 0.42637071428571427 21.4194 0 26.959414285714285 0 32.49942857142857 0 37.89595714285714 0.42637071428571427 43.02 0.8347114285714285c5.058 0.40306285714285717 9.288857142857143 4.251531428571429 10.068428571428571 9.300874285714286 0.4444285714285714 2.877042857142857 0.8305714285714285 5.9253857142857145 0.8305714285714285 9.066942857142855 0 3.1415571428571427 -0.3861428571428571 6.1899 -0.8305714285714285 9.066942857142855 -0.15000000000000002 0.9713571428571428 -0.4277142857142857 1.8982714285714284 -0.8142857142857143 2.7648 -1.221857142857143 0.3504 -2.3841428571428573 0.9790714285714285 -3.389142857142857 1.8907714285714285 -1.610142857142857 1.4604857142857144 -3.0805714285714285 2.9045142857142854 -4.434428571428571 4.436185714285714 -0.4675714285714286 0.10007142857142856 -0.9454285714285714 0.17044285714285715 -1.4305714285714284 0.20909999999999998 -5.124042857142857 0.4083428571428571 -10.52057142857143 0.8347285714285714 -16.060585714285715 0.8347285714285714 -5.540014285714285 0 -10.936585714285714 -0.42638571428571426 -16.06067142857143 -0.8347285714285714C5.8409571428571425 37.167300000000004 1.6098985714285714 33.31881428571429 0.8302371428571429 28.26947142857143 0.3860052857142857 25.39242857142857 0 22.34408571428571 0 19.202528571428573c0 -3.1415571428571427 0.38600485714285715 -6.1899 0.8302371428571429 -9.066942857142855C1.6098942857142855 5.086242857142857 5.8409571428571425 1.2377742857142857 10.898742857142857 0.8347114285714285Z" clip-rule="evenodd"></path>
        <path id="Union" class="fil2 str0" d="M15.156942857142857 15.975171428571427c1.479342857142857 0 2.6785714285714284 1.1992285714285715 2.6785714285714284 2.6785714285714284v1.0975714285714284c0 1.479342857142857 -1.1992285714285715 2.6785714285714284 -2.6785714285714284 2.6785714285714284s-2.6785714285714284 -1.1992285714285715 -2.6785714285714284 -2.6785714285714284v-1.0975714285714284c0 -1.479342857142857 1.1992285714285715 -2.6785714285714284 2.6785714285714284 -2.6785714285714284Zm11.802471428571428 0c1.479342857142857 0 2.6785714285714284 1.1992285714285715 2.6785714285714284 2.6785714285714284v1.0975714285714284c0 1.479342857142857 -1.1992285714285715 2.6785714285714284 -2.6785714285714284 2.6785714285714284s-2.6785714285714284 -1.1992285714285715 -2.6785714285714284 -2.6785714285714284v-1.0975714285714284c0 -1.479342857142857 1.1992285714285715 -2.6785714285714284 2.6785714285714284 -2.6785714285714284Zm14.547985714285714 2.6785714285714284c0 -1.479342857142857 -1.1992285714285715 -2.6785714285714284 -2.6785714285714284 -2.6785714285714284s-2.6785714285714284 1.1992285714285715 -2.6785714285714284 2.6785714285714284v1.0975714285714284c0 1.479342857142857 1.1992285714285715 2.6785714285714284 2.6785714285714284 2.6785714285714284s2.6785714285714284 -1.1992285714285715 2.6785714285714284 -2.6785714285714284v-1.0975714285714284Z" clip-rule="evenodd"></path>
        <path id="Vector (Stroke)" class="fil2 str0" d="M57.02442857142857 37.1139c1.1927142857142856 1.314857142857143 1.0937142857142856 3.3476142857142857 -0.2207142857142857 4.540328571428571 -2.7034285714285713 2.4522 -4.521857142857143 4.463914285714285 -6.021 6.803914285714286 -1.5124285714285715 2.360142857142857 -2.787857142857143 5.191714285714285 -4.247142857142857 9.384428571428572 -0.3668571428571428 1.053 -1.2531428571428571 1.841142857142857 -2.342142857142857 2.0815714285714284 -1.089 0.24085714285714285 -2.224842857142857 -0.10028571428571428 -3.0012 -0.9008571428571428l-6.368057142857143 -6.567c-1.2358285714285715 -1.2745714285714285 -1.2045000000000001 -3.309428571428571 0.0699 -4.545 1.2744428571428572 -1.236 3.3093857142857144 -1.2047142857142858 4.545171428571429 0.06985714285714285l2.8557428571428574 2.944714285714286c0.9418714285714285 -2.2191428571428573 1.9305857142857141 -4.149857142857143 3.074442857142857 -5.935714285714286 1.9105714285714284 -2.9818285714285717 4.166142857142857 -5.422328571428571 7.114714285714285 -8.0973 1.314857142857143 -1.1927142857142856 3.3475714285714284 -1.0937571428571429 4.540285714285714 0.22105714285714284Z" clip-rule="evenodd"></path>
    </g>
</svg>
