<?xml version="1.0" encoding="UTF-8"?>
<!DOCTYPE svg PUBLIC "-//W3C//DTD SVG 1.1//EN" "http://www.w3.org/Graphics/SVG/1.1/DTD/svg11.dtd">
<svg xmlns="http://www.w3.org/2000/svg" xml:space="preserve" width="100%" height="100%" version="1.1"
    style="shape-rendering:geometricPrecision; text-rendering:geometricPrecision; image-rendering:optimizeQuality; fill-rule:evenodd; clip-rule:evenodd"
    viewBox="0 0 500 500" xmlns:xlink="http://www.w3.org/1999/xlink">
    <defs>
        <style type="text/css">
            <![CDATA[
                .str0 {stroke:CURRENT_COLOR1; stroke-width:1; stroke-linecap:round; stroke-linejoin:round}
                .fil0 {fill:COLOR_DECORATE}
                .fil1 {fill:COLOR_FILL}
            ]]>
        </style>
    </defs>
    <desc>Clean Broom Wipe Streamline Icon: https://streamlinehq.com</desc>
    <g id="clean-broom-wipe">
        <path id="Union" class="fil0 str0" fill-rule="evenodd" d="M268.57142857142856 37.964285714285715A26.785714285714285 26.785714285714285 0 0 0 218.92857142857144 17.857142857142858L114.78571428571429 274.75a26.785714285714285 26.785714285714285 0 0 0 49.64285714285714 20.107142857142854L268.57142857142856 37.964285714285715Zm202.14285714285717 460.6071428571429a26.785714285714285 26.785714285714285 0 0 0 0 -53.57142857142857h-68.82142857142857a26.785714285714285 26.785714285714285 0 1 0 0 53.57142857142857h68.82142857142857Zm-5.071428571428571 -124a26.785714285714285 26.785714285714285 0 0 1 -26.785714285714285 26.785714285714285h-68.42857142857143a26.785714285714285 26.785714285714285 0 0 1 0 -53.57142857142857h68.42857142857143a26.785714285714285 26.785714285714285 0 0 1 26.785714285714285 26.785714285714285Zm-63.75 -74.03571428571429a26.785714285714285 26.785714285714285 0 0 0 0 -53.57142857142857H333.5a26.785714285714285 26.785714285714285 0 0 0 0 53.57142857142857h68.42857142857143Z" clip-rule="evenodd"></path>
        <path id="Union_2" class="fil1 str0" d="M255.60714285714286 416.60714285714283c11.357142857142858 20.928571428571427 36.285714285714285 28.357142857142858 60.07142857142857 28.357142857142858a26.785714285714285 26.785714285714285 0 0 1 0 53.57142857142857h-3.2142857142857144v0.35714285714285715H80.42857142857142c-37.5 0 -76.96428571428571 -25.035714285714285 -77.96428571428571 -68.75 -0.8214285714285714 -36.642857142857146 6.964285714285714 -78.32142857142857 29.107142857142858 -110.14285714285715 23 -33.07142857142858 60.5 -53.85714285714286 113.67857142857143 -48.214285714285715 19.642857142857146 2.142857142857143 43.57142857142857 10.785714285714286 62.89285714285714 26.178571428571427 19.642857142857146 15.678571428571429 35.642857142857146 39.28571428571429 35.642857142857146 70.67857142857143 0 19.107142857142858 4.678571428571429 35 11.785714285714286 48.00000000000001Z" stroke-width="1"></path>
    </g>
</svg>
