<?xml version="1.0" standalone="no"?><!DOCTYPE svg PUBLIC "-//W3C//DTD SVG 1.1//EN" "http://www.w3.org/Graphics/SVG/1.1/DTD/svg11.dtd">
<svg class="icon" width="200px" height="200.00px" viewBox="0 0 1024 1024" version="1.1" xmlns="http://www.w3.org/2000/svg">
    <path d="M849.570011 378.77839c0-68.868798-55.885336-125.318633-125.318633-125.318633H514.257993l-73.384785-103.303197c-8.467475-8.467475-17.499449-17.499449-29.918412-17.499449H212.815877c-68.868798 0-125.318633 55.885336-125.318633 125.318633v507.484013c0 68.868798 55.885336 125.318633 125.318633 125.318633H750.7828c55.885336 0 103.303197-38.385888 116.28666-90.319735l64.91731-271.523705c4.515987-12.983462 4.515987-22.015436 4.515986-34.434399-0.564498-51.36935-34.998897-103.303197-86.932745-115.722161zM156.93054 593.85226V257.975744c0-29.918412 25.402426-55.885336 55.885337-55.885336h176.123484l77.336273 103.303197c8.467475 12.983462 22.015436 17.499449 34.434399 17.499449h224.105844c29.918412 0 55.885336 22.015436 55.885336 51.36935H307.651599c-60.401323 0-107.819184 42.901874-120.238148 98.78721l-30.482911 120.802646z m710.13892-77.336273L798.200662 779.007718v4.515987c0 4.515987 0 4.515987-4.515987 8.467475s-4.515987 8.467475-8.467475 12.983462c-8.467475 8.467475-25.402426 12.983462-38.385888 12.983462H247.250276c-29.918412 0-55.885336-25.402426-55.885337-55.885337v-12.983462l64.91731-262.491731c4.515987-25.402426 29.918412-42.901874 55.885336-42.901874h503.532525c29.918412 0 55.885336 25.402426 55.885337 55.885336 0 3.951488 0 7.902977-4.515987 16.934951z" fill="#8a8a8a" />
</svg>