<?xml version="1.0" encoding="UTF-8"?>
<!DOCTYPE svg PUBLIC "-//W3C//DTD SVG 1.1//EN" "http://www.w3.org/Graphics/SVG/1.1/DTD/svg11.dtd">
<svg xmlns="http://www.w3.org/2000/svg" xml:space="preserve" width="100%" height="100%" version="1.1"
    style="shape-rendering:geometricPrecision; text-rendering:geometricPrecision; image-rendering:optimizeQuality; fill-rule:evenodd; clip-rule:evenodd"
    viewBox="0 0 64 64" xmlns:xlink="http://www.w3.org/1999/xlink">
    <defs>
        <style type="text/css">
            <![CDATA[
                .str0 {stroke:CURRENT_COLOR1; stroke-width:1; stroke-linecap:round; stroke-linejoin:round}
                .fil0 {fill:COLOR_DECORATE}
                .fil1 {fill:COLOR_FILL}
            ]]>
        </style>
    </defs>
    <desc>Voice Increase Streamline Icon: https://streamlinehq.com</desc>
    <g id="voice-increase--voice-increase-volume-higher-high">
        <path id="Union" class="fil0 str0" d="M53.536 39.64288c0 -1.8935771428571426 -1.5350857142857142 -3.4285714285714284 -3.4285714285714284 -3.4285714285714284s-3.4285714285714284 1.5349942857142858 -3.4285714285714284 3.4285714285714284V46.67885714285714H39.64288c-1.8935771428571426 0 -3.4285714285714284 1.5350857142857142 -3.4285714285714284 3.4285714285714284s1.5349942857142858 3.4285714285714284 3.4285714285714284 3.4285714285714284H46.67885714285714v7.035885714285714c0 1.8934857142857142 1.5350857142857142 3.4285714285714284 3.4285714285714284 3.4285714285714284s3.4285714285714284 -1.5350857142857142 3.4285714285714284 -3.4285714285714284V53.536h7.035885714285714c1.8934857142857142 0 3.4285714285714284 -1.5350857142857142 3.4285714285714284 -3.4285714285714284s-1.5350857142857142 -3.4285714285714284 -3.4285714285714284 -3.4285714285714284H53.536V39.64288Z" clip-rule="evenodd"></path>
        <path id="Union_2" class="fil1 str0" d="M16.32589714285714 0c1.8935314285714286 0 3.4285714285714284 1.535021714285714 3.4285714285714284 3.4285714285714284v39.42852571428571c0 1.8935314285714286 -1.5350399999999997 3.4286171428571426 -3.4285714285714284 3.4286171428571426s-3.4285714285714284 -1.5350857142857142 -3.4285714285714284 -3.4286171428571426V3.4285714285714284c0 -1.8935497142857143 1.5350399999999997 -3.4285714285714284 3.4285714285714284 -3.4285714285714284ZM3.4285714285714284 7.673005714285713c1.8935314285714286 0 3.4285714285714284 1.5349942857142858 3.4285714285714284 3.4285714285714284v24.55542857142857c0 1.8935314285714286 -1.5350399999999997 3.4285714285714284 -3.4285714285714284 3.4285714285714284 -1.8935497142857143 0 -3.4285714285714284 -1.5350399999999997 -3.4285714285714284 -3.4285714285714284v-24.55542857142857c0 -1.8935771428571426 1.535021714285714 -3.4285714285714284 3.4285714285714284 -3.4285714285714284Zm25.79350857142857 0.23657142857142854c1.8935771428571426 0 3.4285714285714284 1.5350399999999997 3.4285714285714284 3.4285714285714284v24.555474285714283c0 1.8935314285714286 -1.5349942857142858 3.4285714285714284 -3.4285714285714284 3.4285714285714284 -1.8935314285714286 0 -3.4285714285714284 -1.5350399999999997 -3.4285714285714284 -3.4285714285714284V11.33814857142857c0 -1.8935314285714286 1.5350399999999997 -3.4285714285714284 3.4285714285714284 -3.4285714285714284Zm28.435062857142857 3.192c0 -1.8935771428571426 -1.5346285714285712 -3.4285714285714284 -3.4285714285714284 -3.4285714285714284 -1.8934857142857142 0 -3.4285714285714284 1.5349942857142858 -3.4285714285714284 3.4285714285714284v17.04128c0 1.8935314285714286 1.5350857142857142 3.4285714285714284 3.4285714285714284 3.4285714285714284 1.8939428571428572 0 3.4285714285714284 -1.5350399999999997 3.4285714285714284 -3.4285714285714284V11.101577142857142ZM45.54688 3.4285714285714284c0 -1.8935497142857143 -1.5350399999999997 -3.4285714285714284 -3.4285714285714284 -3.4285714285714284s-3.4285714285714284 1.535021714285714 -3.4285714285714284 3.4285714285714284v30.57142857142857c0 1.8935314285714286 1.5350399999999997 3.4285714285714284 3.4285714285714284 3.4285714285714284s3.4285714285714284 -1.5350399999999997 3.4285714285714284 -3.4285714285714284V3.4285714285714284Z" clip-rule="evenodd"></path>
    </g>
</svg>
