<?xml version="1.0" encoding="UTF-8"?>
<!DOCTYPE svg PUBLIC "-//W3C//DTD SVG 1.1//EN" "http://www.w3.org/Graphics/SVG/1.1/DTD/svg11.dtd">
<svg xmlns="http://www.w3.org/2000/svg" xml:space="preserve" width="100%" height="100%" version="1.1"
    style="shape-rendering:geometricPrecision; text-rendering:geometricPrecision; image-rendering:optimizeQuality; fill-rule:evenodd; clip-rule:evenodd"
    viewBox="0 0 64 64" xmlns:xlink="http://www.w3.org/1999/xlink">
    <defs>
        <style type="text/css">
            <![CDATA[
                .str0 {stroke:CURRENT_COLOR1; stroke-width:1; stroke-linecap:round; stroke-linejoin:round}
                .fil0 {fill:COLOR_DECORATE}
                .fil1 {fill:COLOR_FILL}
            ]]>
        </style>
    </defs>
    <desc>Add Bell Notification Streamline Icon: https://streamlinehq.com</desc>
    <g id="add-bell-notification--notification-alarm-alert-bell-add">
        <path id="Subtract" class="fil0 str0" d="m34.90893714285714 50.1952 0.00009142857142857143 0s0 0.00045714285714285713 -0.00009142857142857143 0.00045714285714285713c-3.4904228571428573 0.4233142857142857 -6.692114285714285 0.5289142857142857 -8.628114285714284 0.5289142857142857 -0.2872685714285714 0 -0.6024228571428571 -0.0022857142857142855 -0.9422171428571428 -0.007314285714285714 0.3394285714285714 0.005028571428571428 0.6542171428571427 0.007314285714285714 0.9411657142857143 0.007314285714285714 1.9362285714285712 0 5.138331428571428 -0.10559999999999999 8.629165714285714 -0.5293714285714285ZM17.52045714285714 58.747885714285715c-0.5198171428571429 -1.3654857142857144 0.7505828571428571 -2.5993142857142857 2.206262857142857 -2.476342857142857 2.6828342857142857 0.2258285714285714 5.011611428571428 0.28662857142857145 6.554057142857142 0.28662857142857145 1.543405714285714 0 3.8740114285714284 -0.06079999999999999 6.558811428571428 -0.2870857142857142 1.4556799999999999 -0.12297142857142856 2.7261714285714285 1.1108571428571428 2.2064 2.476342857142857 -0.4120685714285714 1.0820571428571428 -1.0097371428571427 2.021485714285714 -1.7929142857142857 2.7967999999999997 -1.6522057142857143 1.6365714285714283 -4.038034285714286 2.4557714285714285 -6.969919999999999 2.4557714285714285s-5.31776 -0.8191999999999999 -6.969965714285714 -2.4557714285714285c-0.78304 -0.7753142857142856 -1.3806628571428572 -1.7142857142857142 -1.7927314285714284 -2.7963428571428572Z" clip-rule="evenodd"></path>
        <path id="Subtract_2" class="fil1 str0" d="M35.92096 6.391497142857142c-2.7874742857142856 -1.2207085714285713 -6.035702857142857 -1.818377142857143 -9.63712 -1.818377142857143 -6.068114285714285 0 -11.133439999999998 1.6968228571428572 -14.681737142857141 5.211474285714285 -3.551542857142857 3.5178514285714284 -5.270491428571428 8.546742857142856 -5.270491428571428 14.57312 0 2.453485714285714 -0.3646171428571428 3.883657142857143 -0.7805714285714286 4.788891428571428 -0.40310857142857137 0.8773485714285714 -0.9287771428571427 1.4334628571428571 -1.6339794285714284 2.0721828571428573 -0.090752 0.0821942857142857 -0.19036799999999998 0.17014857142857143 -0.2968045714285714 0.2641828571428571l-0.00001371428571428571 0c-0.6616 0.5842285714285714 -1.5865462857142856 1.4010514285714284 -2.2815405714285713 2.5090742857142856C0.4669851428571428 35.38176 0 37.09001142857143 0 39.395291428571426c0 3.0462171428571425 1.7093302857142858 5.28064 3.877540571428571 6.81408 2.1228251428571427 1.5017142857142858 4.882002285714286 2.4937142857142853 7.625088 3.170285714285714 5.51488 1.3609142857142857 11.725302857142855 1.625142857142857 14.781165714285713 1.625142857142857 3.055954285714286 0 9.266422857142857 -0.2642285714285714 14.781348571428572 -1.625142857142857 2.7431314285714286 -0.6765714285714285 5.502171428571429 -1.6685714285714284 7.625142857142857 -3.170285714285714 2.168228571428571 -1.5333942857142857 3.8774857142857138 -3.7678171428571425 3.8774857142857138 -6.81408 0 -2.3053257142857144 -0.4667428571428571 -4.013577142857143 -1.3385142857142858 -5.403382857142858 -0.2966857142857143 -0.4730057142857143 -0.6354285714285715 -0.8929371428571429 -0.9773714285714284 -1.264365714285714 -0.04845714285714285 0.0008228571428571429 -0.09737142857142857 0.0012342857142857142 -0.14582857142857142 0.0012342857142857142 -4.623451428571428 0 -8.371474285714285 -3.7480228571428573 -8.371474285714285 -8.371519999999999v-2.0928914285714284H39.6416c-4.623451428571428 0 -8.371519999999999 -3.7480228571428573 -8.371519999999999 -8.371519999999999 0 -3.2869485714285713 1.8943542857142854 -6.131474285714285 4.65088 -7.50134857142857Z" clip-rule="evenodd"></path>
        <path id="Union" class="fil0 str0" d="M53.536 24.357394285714282c0 1.8935314285714286 -1.5350857142857142 3.4285714285714284 -3.4285714285714284 3.4285714285714284s-3.4285714285714284 -1.5350399999999997 -3.4285714285714284 -3.4285714285714284V17.321554285714285H39.64288c-1.8935771428571426 0 -3.4285714285714284 -1.5350399999999997 -3.4285714285714284 -3.4285714285714284s1.5349942857142858 -3.4285714285714284 3.4285714285714284 -3.4285714285714284H46.67885714285714V3.4285714285714284c0 -1.8935497142857143 1.5350857142857142 -3.4285714285714284 3.4285714285714284 -3.4285714285714284s3.4285714285714284 1.535021714285714 3.4285714285714284 3.4285714285714284v7.03584h7.035885714285714c1.8934857142857142 0 3.4285714285714284 1.5350399999999997 3.4285714285714284 3.4285714285714284s-1.5350857142857142 3.4285714285714284 -3.4285714285714284 3.4285714285714284H53.536v7.03584Z" clip-rule="evenodd"></path>
    </g>
</svg>
