<?xml version="1.0" encoding="UTF-8"?>
<!DOCTYPE svg PUBLIC "-//W3C//DTD SVG 1.1//EN" "http://www.w3.org/Graphics/SVG/1.1/DTD/svg11.dtd">
<svg xmlns="http://www.w3.org/2000/svg" xml:space="preserve" width="100%" height="100%" version="1.1"
    style="shape-rendering:geometricPrecision; text-rendering:geometricPrecision; image-rendering:optimizeQuality; fill-rule:evenodd; clip-rule:evenodd"
    viewBox="0 0 14 14" xmlns:xlink="http://www.w3.org/1999/xlink">
    <defs>
        <style type="text/css">
            <![CDATA[
                .str0 {stroke:CURRENT_COLOR1; stroke-width:1; stroke-linecap:round; stroke-linejoin:round}
                .fil0 {fill:COLOR_DECORATE}
                .fil1 {fill:COLOR_FILL}
            ]]>
        </style>
    </defs>
    <desc>Cyborg 2 Streamline Icon: https://streamlinehq.com</desc>
    <g id="cyborg-2--artificial-robotics-intelligence-machine-technology-android">
        <path id="Union" class="fil0 str0" d="M7.027 4.814h-0.054c-1.242 0 -2.594 0 -3.755 0.203a2.045 2.045 0 0 0 -1.64 1.592c-0.167 0.776 -0.167 1.422 -0.167 2.597v0.087c0 1.176 0 1.822 0.168 2.598a2.045 2.045 0 0 0 1.639 1.591c1.161 0.204 2.513 0.204 3.755 0.204h0.054c1.242 0 2.594 0 3.755 -0.204a2.045 2.045 0 0 0 1.64 -1.591c0.167 -0.776 0.167 -1.422 0.167 -2.598v-0.087c0 -1.175 0 -1.821 -0.168 -2.597a2.045 2.045 0 0 0 -1.639 -1.592c-1.161 -0.203 -2.513 -0.203 -3.755 -0.203Z" clip-rule="evenodd"></path>
        <path id="Subtract" class="fil1 str0" d="M7 0.263c-0.527 0 -1.009 0.15 -1.36 0.5 -0.35 0.35 -0.499 0.832 -0.499 1.36 0 0.526 0.15 1.008 0.5 1.358 0.174 0.174 0.38 0.299 0.61 0.38l0 0.955c0.243 -0.002 0.485 -0.002 0.722 -0.002h0.054c0.238 0 0.48 0 0.723 0.002l0 -0.955a1.61 1.61 0 0 0 0.61 -0.38c0.35 -0.35 0.5 -0.832 0.5 -1.359s-0.15 -1.009 -0.5 -1.359c-0.35 -0.35 -0.833 -0.5 -1.36 -0.5Z" clip-rule="evenodd"></path>
        <path id="Union_2" class="fil1 str0" d="M4.979 6.934c0.345 0 0.625 0.28 0.625 0.625l0 0.603a0.625 0.625 0 1 1 -1.25 0v-0.603c0 -0.345 0.28 -0.625 0.625 -0.625Zm4.042 0c0.345 0 0.625 0.28 0.625 0.625l0 0.603a0.625 0.625 0 1 1 -1.25 0l0 -0.603c0 -0.345 0.28 -0.625 0.625 -0.625Zm-4.285 2.99a0.625 0.625 0 0 1 0.845 0.239l0.006 0.009a1.426 1.426 0 0 0 0.285 0.299c0.216 0.17 0.573 0.357 1.128 0.357 0.554 0 0.912 -0.188 1.129 -0.357a1.426 1.426 0 0 0 0.284 -0.3l0.006 -0.008a0.625 0.625 0 0 1 1.09 0.61l-0.547 -0.301 0.547 0.302 0 0.002 -0.002 0.003 -0.004 0.007 -0.011 0.018 -0.033 0.052a2.68 2.68 0 0 1 -0.56 0.598c-0.408 0.321 -1.032 0.624 -1.9 0.624 -0.866 0 -1.49 -0.303 -1.899 -0.624a2.68 2.68 0 0 1 -0.56 -0.598 1.487 1.487 0 0 1 -0.032 -0.052l-0.01 -0.018 -0.005 -0.007 -0.001 -0.003 -0.001 -0.001c0 -0.001 0 -0.002 0.547 -0.303l-0.548 0.302a0.625 0.625 0 0 1 0.246 -0.85Z" clip-rule="evenodd"></path>
    </g>
</svg>


<?xml version="1.0" encoding="UTF-8"?>
<!DOCTYPE svg PUBLIC "-//W3C//DTD SVG 1.1//EN" "http://www.w3.org/Graphics/SVG/1.1/DTD/svg11.dtd">
<svg xmlns="http://www.w3.org/2000/svg" xml:space="preserve" width="100%" height="100%" version="1.1"
    style="shape-rendering:geometricPrecision; text-rendering:geometricPrecision; image-rendering:optimizeQuality; fill-rule:evenodd; clip-rule:evenodd"
    viewBox="0 0 64 64" xmlns:xlink="http://www.w3.org/1999/xlink">
    <defs>
        <style type="text/css">
            <![CDATA[
                .str0 {stroke:CURRENT_COLOR1; stroke-width:1; stroke-linecap:round; stroke-linejoin:round}
                .fil0 {fill:COLOR_DECORATE}
                .fil1 {fill:COLOR_FILL}
            ]]>
        </style>
    </defs>
    <desc>Tea Cup Streamline Icon: https://streamlinehq.com</desc>
    <g id="tea-cup--herbal-cook-tea-tisane-cup-drink-cooking-nutrition-mug-food">
        <path id="Union" class="fil0 str0" d="M30.537142857142854 3.515428571428571a3.4285714285714284 3.4285714285714284 0 0 0 -6.857142857142857 0v5.339428571428571a3.4285714285714284 3.4285714285714284 0 0 0 6.857142857142857 0V3.52Zm29.005714285714284 60.39771428571428a3.4285714285714284 3.4285714285714284 0 0 0 0 -6.857142857142857H4.457142857142856a3.4285714285714284 3.4285714285714284 0 0 0 0 6.857142857142857h55.08571428571429ZM13.234285714285713 0.08685714285714285a3.4285714285714284 3.4285714285714284 0 0 1 3.4285714285714284 3.4285714285714284v5.339428571428571a3.4285714285714284 3.4285714285714284 0 0 1 -6.857142857142857 0V3.52a3.4285714285714284 3.4285714285714284 0 0 1 3.4285714285714284 -3.4285714285714284Zm31.177142857142858 3.4285714285714284a3.4285714285714284 3.4285714285714284 0 0 0 -6.857142857142857 0v5.339428571428571a3.4285714285714284 3.4285714285714284 0 0 0 6.857142857142857 0V3.52Z" clip-rule="evenodd"></path>
        <path id="Union_2" class="fil1 str0" d="M12.315428571428571 16.658285714285714c10.788571428571428 -0.7222857142857142 24.365714285714283 -0.6262857142857143 34.409142857142854 0.3062857142857143a2.2857142857142856 2.2857142857142856 0 0 1 0.4982857142857143 0.10057142857142856c0.6628571428571428 0.022857142857142857 1.3348571428571427 0.054857142857142854 2.011428571428571 0.09142857142857143 6.139428571428571 0.3428571428571428 12.434285714285714 5.147428571428571 12.434285714285714 12.18742857142857s-6.285714285714286 11.862857142857143 -12.434285714285714 12.201142857142857l-0.896 0.045714285714285714c-2.011428571428571 5.906285714285714 -7.693714285714286 10.153142857142857 -13.988571428571428 10.651428571428571a95.63428571428571 95.63428571428571 0 0 1 -7.067428571428572 0.3474285714285714c-1.9062857142857141 0 -4.150857142857142 -0.13257142857142856 -6.454857142857142 -0.32 -7.625142857142857 -0.6034285714285714 -14.33142857142857 -6.733714285714286 -14.733714285714285 -14.614857142857142 -0.045714285714285714 -0.8731428571428571 -0.07314285714285713 -1.7965714285714285 -0.07314285714285713 -2.793142857142857l0 -2.4594285714285715a195.0765714285714 195.0765714285714 0 0 1 0.11885714285714284 -9.46285714285714 6.596571428571428 6.596571428571428 0 0 1 6.175999999999999 -6.281142857142857Zm36.84571428571429 18.016c3.2685714285714282 -0.32 5.650285714285714 -2.8525714285714283 5.650285714285714 -5.330285714285714 0 -2.482285714285714 -2.4091428571428573 -5.0285714285714285 -5.723428571428571 -5.321142857142856 0.09142857142857143 2.7428571428571424 0.09142857142857143 5.485714285714285 0.08228571428571428 8.374857142857143l-0.009142857142857142 2.2765714285714282Z" clip-rule="evenodd"></path>
    </g>
</svg>


