<?xml version="1.0" encoding="UTF-8"?>
<!DOCTYPE svg PUBLIC "-//W3C//DTD SVG 1.1//EN" "http://www.w3.org/Graphics/SVG/1.1/DTD/svg11.dtd">
<svg xmlns="http://www.w3.org/2000/svg" xml:space="preserve" width="100%" height="100%" version="1.1" style="shape-rendering:geometricPrecision; text-rendering:geometricPrecision; image-rendering:optimizeQuality; fill-rule:evenodd; clip-rule:evenodd" viewBox="0 0 60 60" xmlns:xlink="http://www.w3.org/1999/xlink">
    <defs>
        <style type="text/css">
            <![CDATA[
                .str0 {stroke:CURRENT_COLOR1; stroke-width:1; stroke-linecap:round; stroke-linejoin:round}
                .fil0 {fill:COLOR_DECORATE}
                .fil1 {fill:COLOR_FILL}
            ]]>
        </style>
    </defs>
    <desc>Sound Recognition Search Streamline Icon: https://streamlinehq.com</desc>
    <g id="sound-recognition-search">
        <path id="Vector" class="fil0 str0" d="M40.019999999999996 53.56285714285714c8.982857142857142 0 14.035714285714285 -5.0528571428571425 14.035714285714285 -14.035714285714285s-5.0528571428571425 -14.035714285714285 -14.035714285714285 -14.035714285714285 -14.035714285714285 5.0528571428571425 -14.035714285714285 14.035714285714285 5.0528571428571425 14.035714285714285 14.035714285714285 14.035714285714285Z" clip-rule="evenodd"></path>
        <path id="Union" class="fil0 str0" fill-rule="evenodd" d="M42.76714285714285 3.9257142857142857a3.2142857142857144 3.2142857142857144 0 0 0 -6.428571428571429 0v9.741428571428571a3.2142857142857144 3.2142857142857144 0 1 0 6.428571428571429 0V3.9257142857142857ZM18.57857142857143 3.9514285714285715a3.2142857142857144 3.2142857142857144 0 0 0 -6.428571428571429 0v38.36571428571428a3.2142857142857144 3.2142857142857144 0 0 0 6.428571428571429 0V3.9514285714285715ZM6.488571428571428 11.417142857142858a3.2142857142857144 3.2142857142857144 0 1 0 -6.428571428571429 0v23.892857142857142a3.2142857142857144 3.2142857142857144 0 0 0 6.428571428571429 0V11.417142857142858Zm20.97 -3.2142857142857144a3.2142857142857144 3.2142857142857144 0 0 1 3.2142857142857144 3.2142857142857144v5.061428571428571a3.2142857142857144 3.2142857142857144 0 0 1 -6.428571428571429 0V11.417142857142858a3.2142857142857144 3.2142857142857144 0 0 1 3.2142857142857144 -3.2142857142857144Z" clip-rule="evenodd"></path>
        <path id="Union_2" class="fil1 str0" fill-rule="evenodd" d="M29.198571428571427 39.527142857142856c0 -3.9 1.0842857142857143 -6.492857142857142 2.704285714285714 -8.117142857142856 1.6242857142857143 -1.6199999999999999 4.217142857142857 -2.704285714285714 8.117142857142856 -2.704285714285714 3.9 0 6.492857142857142 1.0842857142857143 8.112857142857143 2.704285714285714 1.6242857142857143 1.6242857142857143 2.7085714285714286 4.217142857142857 2.7085714285714286 8.117142857142856 0 3.9 -1.0842857142857143 6.492857142857142 -2.7085714285714286 8.112857142857143 -1.6199999999999999 1.6242857142857143 -4.212857142857143 2.7085714285714286 -8.112857142857143 2.7085714285714286s-6.492857142857142 -1.0842857142857143 -8.117142857142856 -2.7085714285714286c-1.6199999999999999 -1.6199999999999999 -2.704285714285714 -4.212857142857143 -2.704285714285714 -8.112857142857143Zm10.821428571428571 -17.25c-5.082857142857143 0 -9.51 1.4357142857142857 -12.66 4.585714285714285 -3.1542857142857144 3.1542857142857144 -4.594285714285714 7.581428571428571 -4.594285714285714 12.664285714285715 0 5.082857142857143 1.44 9.51 4.594285714285714 12.66 3.15 3.15 7.577142857142857 4.59 12.66 4.59 3.84 0 7.3028571428571425 -0.8185714285714285 10.127142857142857 -2.5799999999999996l4.187142857142857 4.191428571428571a3.2142857142857144 3.2142857142857144 0 1 0 4.542857142857143 -4.542857142857143l-4.187142857142857 -4.191428571428571c1.757142857142857 -2.8285714285714287 2.5799999999999996 -6.287142857142857 2.5799999999999996 -10.127142857142857 0 -5.082857142857143 -1.44 -9.51 -4.59 -12.66 -3.15 -3.1542857142857144 -7.577142857142857 -4.59 -12.66 -4.59Z" clip-rule="evenodd"></path>
    </g>
</svg>


<?xml version="1.0" encoding="UTF-8"?>
<!DOCTYPE svg PUBLIC "-//W3C//DTD SVG 1.1//EN" "http://www.w3.org/Graphics/SVG/1.1/DTD/svg11.dtd">
<svg xmlns="http://www.w3.org/2000/svg" xml:space="preserve" width="100%" height="100%" version="1.1"
    style="shape-rendering:geometricPrecision; text-rendering:geometricPrecision; image-rendering:optimizeQuality; fill-rule:evenodd; clip-rule:evenodd"
    viewBox="0 0 64 64" xmlns:xlink="http://www.w3.org/1999/xlink">
    <defs>
        <style type="text/css">
            <![CDATA[
                .str0 {stroke:CURRENT_COLOR1; stroke-width:1; stroke-linecap:round; stroke-linejoin:round}
                .fil0 {fill:COLOR_DECORATE}
                .fil1 {fill:COLOR_FILL}
            ]]>
        </style>
    </defs>
    <desc>Pin 1 Streamline Icon: https://streamlinehq.com</desc>
    <g id="pin-1--pin-push-thumbtack">
        <path id="Subtract" class="fil0 str0" d="M19.31606857142857 40.053577142857144c1.4014171428571427 1.6786742857142856 2.952822857142857 3.227702857142857 4.6336 4.627154285714285 -0.15707428571428572 0.29965714285714284 -0.36155428571428566 0.5809371428571428 -0.6133942857142857 0.8327771428571428l-16.459885714285715 16.45997714285714c-1.3389714285714285 1.3389714285714285 -3.5098057142857138 1.3389714285714285 -4.848745142857142 0 -1.3389394285714287 -1.3389714285714285 -1.3389394285714287 -3.5099428571428573 0 -4.848914285714286L18.487542857142856 40.66477714285714c0.2506514285714285 -0.2506514285714285 0.5304685714285714 -0.45439999999999997 0.8285257142857143 -0.6112000000000001Z" clip-rule="evenodd"></path>
        <path id="Union" class="fil1 str0" d="M59.56297142857143 32.111039999999996c3.4436571428571425 -3.444022857142857 3.9913142857142856 -7.9227428571428575 2.922971428571428 -12.139657142857141 -1.052342857142857 -4.155382857142857 -3.6896 -8.24054857142857 -6.953599999999999 -11.504548571428572 -3.264 -3.2640457142857144 -7.349028571428571 -5.901097142857142 -11.504548571428572 -6.953819428571428C39.81088 0.4447099428571428 35.332159999999995 0.9923839999999999 31.88813714285714 4.436383999999999c-2.89952 2.8995245714285716 -4.421988571428571 7.099250285714286 -5.3028571428571425 10.741170285714285 -0.6344228571428571 2.6229028571428574 -0.9854628571428572 5.19968 -1.2195657142857144 7.054034285714285l-11.243382857142857 0.7670857142857143c-0.6758857142857143 0.046125714285714284 -1.296502857142857 0.38971428571428574 -1.6944 0.9380114285714286 -0.3978514285714285 0.5482971428571428 -0.5320228571428571 1.2448914285714285 -0.36621714285714285 1.90176 3.233005714285714 12.810468571428572 13.303999999999998 22.834925714285713 26.093348571428567 26.097554285714285 0.6574171428571428 0.16777142857142857 1.355382857142857 0.03474285714285714 1.9050514285714284 -0.36297142857142856 0.5496685714285714 -0.3977142857142857 0.8941714285714285 -1.0194285714285714 0.9403885714285714 -1.696l0.7670857142857143 -11.243565714285713c1.8543542857142856 -0.2341028571428571 4.431268571428571 -0.5851428571428571 7.053897142857142 -1.2195657142857144 3.6420571428571424 -0.8808685714285713 7.841828571428572 -2.403337142857143 10.741485714285714 -5.3028571428571425Z" clip-rule="evenodd"></path>
    </g>
</svg>


<?xml version="1.0" encoding="UTF-8"?>
<!DOCTYPE svg PUBLIC "-//W3C//DTD SVG 1.1//EN" "http://www.w3.org/Graphics/SVG/1.1/DTD/svg11.dtd">
<svg xmlns="http://www.w3.org/2000/svg" xml:space="preserve" width="100%" height="100%" version="1.1"
    style="shape-rendering:geometricPrecision; text-rendering:geometricPrecision; image-rendering:optimizeQuality; fill-rule:evenodd; clip-rule:evenodd"
    viewBox="0 0 32 32" xmlns:xlink="http://www.w3.org/1999/xlink">
    <defs>
        <style type="text/css">
            <![CDATA[
                .str0 {stroke:CURRENT_COLOR1; stroke-width:1; stroke-linecap:round; stroke-linejoin:round}
                .fil0 {fill:COLOR_FILL}
                .fil1 {fill:COLOR_DECORATE}
            ]]>
        </style>
    </defs>
    <desc>White Board Streamline Icon: https://streamlinehq.com</desc>
    <g id="white-board--board-design-drawing-easel-process">
        <path id="Subtract" class="fil0 str0" d="M15.93078857142857 3.6595885714285714c-2.59056 0 -5.110354285714286 0.1946742857142857 -7.485234285714285 0.38896 -3.0077028571428572 0.24608 -5.529622857142857 2.5130514285714285 -5.965439999999999 5.4910628571428575C2.2776457142857143 10.9232 2.1049097142857143 12.40416 2.1049097142857143 13.937394285714285s0.1727382857142857 3.014194285714286 0.3752045714285714 4.3977828571428565c0.43581714285714285 2.9780114285714285 2.957737142857143 5.244937142857142 5.965439999999999 5.491108571428571 2.3748799999999997 0.19428571428571428 4.894674285714285 0.3888 7.485234285714285 0.3888 2.59056 0 5.1103314285714285 -0.1945142857142857 7.485211428571428 -0.3888 3.0077714285714285 -0.24617142857142857 5.529599999999999 -2.5130971428571427 5.965485714285714 -5.491108571428571 0.2025142857142857 -1.3835885714285714 0.37508571428571424 -2.864548571428571 0.37508571428571424 -4.3977828571428565s-0.17257142857142857 -3.014194285714286 -0.37508571428571424 -4.3977828571428565c-0.43588571428571427 -2.9780114285714285 -2.9577142857142857 -5.244982857142857 -5.965485714285714 -5.4910628571428575 -2.3748799999999997 -0.19428571428571428 -4.894651428571429 -0.38896 -7.485211428571428 -0.38896Z" clip-rule="evenodd"></path>
        <path id="Subtract_2" class="fil1 str0" d="M17.71428571428571 2.2904685714285713c0 -0.9467839999999998 -0.7675199999999999 -1.7142971428571427 -1.7142857142857142 -1.7142971428571427s-1.7142857142857142 0.7675131428571428 -1.7142857142857142 1.7142971428571427v1.3937371428571428c0.5447085714285714 -0.01577142857142857 1.0933485714285713 -0.024617142857142855 1.6451885714285714 -0.024617142857142855 0.5985371428571428 0 1.1933028571428572 0.0104 1.783382857142857 0.028777142857142855v-1.3978971428571427Z" clip-rule="evenodd"></path>
        <path id="Union" class="fil1 str0" fill-rule="evenodd" d="M31.423771428571428 23.064914285714284c-0.06194285714285714 0.9446857142857142 -0.8781714285714285 1.6601142857142854 -1.8228571428571427 1.5981714285714286 -2.897828571428571 -0.19039999999999999 -5.787885714285714 -0.32 -8.674994285714286 -0.3890285714285714l2.5767085714285716 4.631542857142857c0.4601142857142857 0.8274285714285714 0.15771428571428572 1.8623999999999998 -0.6757714285714286 2.3115428571428573 -0.83344 0.4491428571428571 -1.8822171428571428 0.1424 -2.3424914285714284 -0.6848l-3.5129828571428567 -6.314742857142857c-0.64656 -0.0031999999999999997 -1.2930971428571427 -0.0031999999999999997 -1.9396571428571427 0l-3.5129828571428567 6.314742857142857c-0.4602742857142857 0.8271999999999999 -1.5090514285714285 1.1339428571428571 -2.3424914285714284 0.6848 -0.8334628571428572 -0.4491428571428571 -1.1359771428571428 -1.4841142857142855 -0.675702857142857 -2.3115428571428573l2.57664 -4.631542857142857c-2.887108571428571 0.06902857142857143 -5.777005714285714 0.19862857142857143 -8.674605714285713 0.3890285714285714 -0.9447291428571428 0.06194285714285714 -1.7608914285714286 -0.6534857142857142 -1.8229417142857143 -1.5981714285714286 -0.062048 -0.9448228571428571 0.6535131428571428 -1.760982857142857 1.5982514285714287 -1.8230171428571427 9.24098742857143 -0.6069485714285714 18.406678857142857 -0.6069485714285714 27.647707428571426 0 0.9446857142857142 0.062034285714285715 1.6603428571428571 0.8781942857142857 1.5981714285714286 1.8230171428571427Z" clip-rule="evenodd"></path>
    </g>
</svg>
