<?xml version="1.0" encoding="UTF-8"?>
<!DOCTYPE svg PUBLIC "-//W3C//DTD SVG 1.1//EN" "http://www.w3.org/Graphics/SVG/1.1/DTD/svg11.dtd">
<svg xmlns="http://www.w3.org/2000/svg" xml:space="preserve" width="100%" height="100%" version="1.1"
    style="shape-rendering:geometricPrecision; text-rendering:geometricPrecision; image-rendering:optimizeQuality; fill-rule:evenodd; clip-rule:evenodd"
    viewBox="0 0 64 64" xmlns:xlink="http://www.w3.org/1999/xlink">
    <defs>
        <style type="text/css">
            <![CDATA[
                .str0 {stroke:CURRENT_COLOR1; stroke-width:1; stroke-linecap:round; stroke-linejoin:round}
                .fil0 {fill:COLOR_FILL}
                .fil1 {fill:COLOR_DECORATE}
            ]]>
        </style>
    </defs>
    <desc>Auto Correction Check Streamline Icon: https://streamlinehq.com</desc>
    <g id="auto-correction-check">
        <path id="Union" class="fil0 str0" d="M15.718354285714286 16.06198857142857c-0.6890971428571429 -2.0671999999999997 -2.6236342857142856 -3.4615314285714285 -4.802651428571429 -3.4615314285714285 -2.1790171428571425 0 -4.113554285714286 1.3943314285714286 -4.802605714285714 3.4615314285714285L2.3982582857142853 27.206491428571425c-0.014916571428571427 0.04150857142857142 -0.028900571428571428 0.08342857142857142 -0.04192457142857143 0.12580571428571427l-2.0984484571428568 6.295314285714285c-0.49899337142857136 1.497005714285714 0.3100370285714285 3.115062857142857 1.8070153142857142 3.6140342857142853 1.4969828571428572 0.4990171428571428 3.115030857142857 -0.3100342857142857 3.6140479999999995 -1.8069942857142858l1.4680685714285713 -4.404205714285714h7.537417142857143l1.4680685714285713 4.404205714285714c0.4990171428571428 1.4969599999999998 2.1170285714285715 2.3060114285714284 3.6140342857142853 1.8069942857142858 1.4969599999999998 -0.4989714285714285 2.3060114285714284 -2.1170285714285715 1.8069942857142858 -3.6140342857142853l-2.098422857142857 -6.29526857142857c-0.013028571428571428 -0.042422857142857144 -0.027017142857142858 -0.08438857142857142 -0.04196571428571429 -0.12589714285714285l-3.7147885714285716 -11.144457142857142ZM9.05174857142857 25.31616l1.8639542857142857 -5.591862857142857 1.8639542857142857 5.591862857142857h-3.7279085714285713Zm18.31177142857143 -12.715702857142855c-1.5779657142857142 0 -2.8571428571428568 1.2791771428571428 -2.8571428571428568 2.8571428571428568v8.742034285714285l0.00027428571428571427 0.042788571428571426V34.5312c0 1.5779657142857142 1.2792228571428572 2.8571428571428568 2.8571428571428568 2.8571428571428568h7.549942857142857c4.430948571428571 0 8.022902857142856 -3.5919999999999996 8.022902857142856 -8.022902857142856 0 -2.328182857142857 -0.99168 -4.424685714285714 -2.5756799999999997 -5.890285714285714 0.6266971428571427 -1.0704457142857142 0.9859199999999999 -2.3165714285714287 0.9859199999999999 -3.6465371428571425 0 -3.9919999999999995 -3.23616 -7.228159999999999 -7.228159999999999 -7.228159999999999h-6.755199999999999Zm6.755199999999999 5.7142857142857135c0.8360685714285714 0 1.5138742857142857 0.67776 1.5138742857142857 1.5138742857142857 0 0.8360685714285714 -0.6778057142857143 1.5138742857142857 -1.5138742857142857 1.5138742857142857h-3.8980571428571427v-3.0277485714285715h3.8980571428571427Zm0.7950171428571429 8.74208c1.2750171428571428 0 2.3086171428571425 1.0335999999999999 2.3086171428571425 2.3086171428571425s-1.0335999999999999 2.3086171428571425 -2.3086171428571425 2.3086171428571425H30.220937142857142V27.056822857142855h4.6928Zm18.441234285714284 -8.74208c-1.0555428571428571 0 -1.9113142857142857 0.85568 -1.9113142857142857 1.9112228571428571V29.762742857142857c0 1.0555428571428571 0.8557714285714285 1.9112228571428571 1.9113142857142857 1.9112228571428571h3.1789714285714283c0.8278857142857143 0 1.5396571428571426 -0.5277257142857142 1.8034285714285714 -1.2738742857142857 0.5257142857142857 -1.4877714285714285 2.1581714285714284 -2.2675199999999998 3.6457142857142855 -1.7416685714285713 1.488 0.5258514285714285 2.2678857142857143 2.1582171428571426 1.7417142857142855 3.645942857142857 -1.0454857142857141 2.9578514285714284 -3.8660571428571426 5.083885714285715 -7.190857142857142 5.083885714285715h-3.1789714285714283c-4.2112 0 -7.6255999999999995 -3.4140342857142856 -7.6255999999999995 -7.625508571428571V20.225965714285714c0 -4.211474285714285 3.4143999999999997 -7.625508571428571 7.6255999999999995 -7.625508571428571h3.1789714285714283c3.3247999999999998 0 6.145371428571428 2.12608 7.190857142857142 5.083977142857143 0.5261714285714285 1.4877257142857143 -0.2537142857142857 3.1200914285714285 -1.7417142857142855 3.645942857142857 -1.487542857142857 0.5258514285714285 -3.1199999999999997 -0.25394285714285714 -3.6457142857142855 -1.7417142857142855 -0.26377142857142855 -0.7461942857142856 -0.9755428571428572 -1.2739199999999997 -1.8034285714285714 -1.2739199999999997h-3.1789714285714283Z" clip-rule="evenodd"></path>
        <g id="Group 4622">
            <g id="group 2220">
                <path id="vector (Stroke)" class="fil1" d="M43.605531428571425 47.03862857142857c0.2709028571428571 -0.43702857142857143 0.4273371428571428 -0.9522285714285714 0.4273371428571428 -1.5040457142857142 0 -1.5779199999999998 -1.2791771428571428 -2.8571428571428568 -2.8571428571428568 -2.8571428571428568 -2.408502857142857 0 -4.361005714285714 1.952502857142857 -4.361005714285714 4.361188571428571 0 2.4082285714285714 1.952502857142857 4.360685714285714 4.361005714285714 4.360685714285714 1.5779657142857142 0 2.8571428571428568 -1.2790857142857142 2.8571428571428568 -2.8571428571428568 0 -0.5517714285714286 -0.15643428571428572 -1.0669714285714285 -0.4273371428571428 -1.503542857142857Z" clip-rule="evenodd"></path>
                <path id="vector (Stroke)_2" class="fil1" d="M38.74564571428571 47.03862857142857c-0.2709485714285714 -0.43702857142857143 -0.4273371428571428 -0.9522285714285714 -0.4273371428571428 -1.5040457142857142 0 -1.5779199999999998 1.2791771428571428 -2.8571428571428568 2.8571428571428568 -2.8571428571428568 2.408502857142857 0 4.3609599999999995 1.952502857142857 4.3609599999999995 4.361188571428571 0 2.4082285714285714 -1.9524571428571427 4.360685714285714 -4.3609599999999995 4.360685714285714 -1.5779657142857142 0 -2.8571428571428568 -1.2790857142857142 -2.8571428571428568 -2.8571428571428568 0 -0.5517714285714286 0.1563885714285714 -1.0669714285714285 0.4273371428571428 -1.503542857142857Z" clip-rule="evenodd"></path>
            </g>
            <g id="group 2219">
                <path id="vector (Stroke)_3" class="fil1" d="M25.253942857142857 47.03862857142857c0.2709485714285714 -0.43702857142857143 0.4273371428571428 -0.9522285714285714 0.4273371428571428 -1.5040457142857142 0 -1.5779199999999998 -1.2791771428571428 -2.8571428571428568 -2.8571428571428568 -2.8571428571428568 -2.408502857142857 0 -4.3609599999999995 1.952502857142857 -4.3609599999999995 4.361188571428571 0 2.4082285714285714 1.9524571428571427 4.360685714285714 4.3609599999999995 4.360685714285714 1.5779657142857142 0 2.8571428571428568 -1.2790857142857142 2.8571428571428568 -2.8571428571428568 0 -0.5517714285714286 -0.1563885714285714 -1.0669714285714285 -0.4273371428571428 -1.503542857142857Z" clip-rule="evenodd"></path>
                <path id="vector (Stroke)_4" class="fil1" d="M20.394925714285712 47.03862857142857c-0.2709485714285714 -0.43702857142857143 -0.4273371428571428 -0.9522285714285714 -0.4273371428571428 -1.5040457142857142 0 -1.5779199999999998 1.2791771428571428 -2.8571428571428568 2.8571428571428568 -2.8571428571428568 2.408502857142857 0 4.3609599999999995 1.952502857142857 4.3609599999999995 4.361188571428571 0 2.4082285714285714 -1.9524571428571427 4.360685714285714 -4.3609599999999995 4.360685714285714 -1.5779657142857142 0 -2.8571428571428568 -1.2790857142857142 -2.8571428571428568 -2.8571428571428568 0 -0.5517714285714286 0.1563885714285714 -1.0669714285714285 0.4273371428571428 -1.503542857142857Z" clip-rule="evenodd"></path>
            </g>
            <g id="group 2222">
                <path id="vector (Stroke)_5" class="fil1" d="M6.904639999999999 47.03862857142857c0.2709028571428571 -0.43702857142857143 0.4273371428571428 -0.9522285714285714 0.4273371428571428 -1.5040457142857142 0 -1.5779199999999998 -1.2791771428571428 -2.8571428571428568 -2.8571519999999997 -2.8571428571428568 -2.4085074285714287 0 -4.360986057142857 1.952502857142857 -4.360986057142857 4.361188571428571 0 2.4082285714285714 1.9524786285714284 4.360685714285714 4.360986057142857 4.360685714285714 1.577974857142857 0 2.8571519999999997 -1.2790857142857142 2.8571519999999997 -2.8571428571428568 0 -0.5517714285714286 -0.15643428571428572 -1.0669714285714285 -0.4273371428571428 -1.503542857142857Z" clip-rule="evenodd"></path>
                <path id="vector (Stroke)_6" class="fil1" d="M2.0455771428571428 47.03862857142857c-0.27091657142857145 -0.43702857142857143 -0.42733257142857145 -0.9522285714285714 -0.42733257142857145 -1.5040457142857142 0 -1.5779199999999998 1.2791862857142857 -2.8571428571428568 2.8571428571428568 -2.8571428571428568 2.4084982857142854 0 4.361001142857142 1.952502857142857 4.361001142857142 4.361188571428571 0 2.4082285714285714 -1.952502857142857 4.360685714285714 -4.361001142857142 4.360685714285714 -1.5779565714285713 0 -2.8571428571428568 -1.2790857142857142 -2.8571428571428568 -2.8571428571428568 0 -0.5517714285714286 0.156416 -1.0669714285714285 0.42733257142857145 -1.503542857142857Z" clip-rule="evenodd"></path>
            </g>
            <g id="group 2221">
                <path id="vector (Stroke)_7" class="fil1" d="M61.95702857142857 47.03862857142857c0.27108571428571426 -0.43702857142857143 0.4274285714285714 -0.9522285714285714 0.4274285714285714 -1.5040457142857142 0 -1.5779199999999998 -1.2790857142857142 -2.8571428571428568 -2.8571428571428568 -2.8571428571428568 -2.4086857142857143 0 -4.361142857142856 1.952502857142857 -4.361142857142856 4.361188571428571 0 2.4082285714285714 1.9524571428571427 4.360685714285714 4.361142857142856 4.360685714285714 1.5780571428571428 0 2.8571428571428568 -1.2790857142857142 2.8571428571428568 -2.8571428571428568 0 -0.5517714285714286 -0.15634285714285714 -1.0669714285714285 -0.4274285714285714 -1.503542857142857Z" clip-rule="evenodd"></path>
                <path id="vector (Stroke)_8" class="fil1" d="M57.0976 47.03862857142857c-0.27108571428571426 -0.43702857142857143 -0.4274285714285714 -0.9522285714285714 -0.4274285714285714 -1.5040457142857142 0 -1.5779199999999998 1.2790857142857142 -2.8571428571428568 2.8571428571428568 -2.8571428571428568 2.4086857142857143 0 4.361142857142856 1.952502857142857 4.361142857142856 4.361188571428571 0 2.4082285714285714 -1.9524571428571427 4.360685714285714 -4.361142857142856 4.360685714285714 -1.5780571428571428 0 -2.8571428571428568 -1.2790857142857142 -2.8571428571428568 -2.8571428571428568 0 -0.5517714285714286 0.15634285714285714 -1.0669714285714285 0.4274285714285714 -1.503542857142857Z" clip-rule="evenodd"></path>
            </g>
        </g>
    </g>
</svg>
