<svg xmlns="http://www.w3.org/2000/svg" fill="none" viewBox="0 0 500 500" id="File-Add-Alternate--Streamline-Core" height="500" width="500">
    <desc>File Add Alternate Streamline Icon: https://streamlinehq.com</desc>
    <g id="file-add-alternate--file-common-add">
        <path id="Subtract" fill="#5ecd88" fill-rule="evenodd" d="M87.14285714285714 15.714285714285715A53.57142857142857 53.57142857142857 0 0 1 125 0h214.28571428571428a17.857142857142858 17.857142857142858 0 0 1 12.642857142857142 5.214285714285714l142.85714285714286 142.85714285714286A17.857142857142858 17.857142857142858 0 0 1 500 160.71428571428572v285.7142857142857a53.57142857142857 53.57142857142857 0 0 1 -53.57142857142857 53.57142857142857H182.32142857142858c3.3214285714285716 -8.285714285714286 5.178571428571428 -17.321428571428573 5.178571428571428 -26.785714285714285v-17.857142857142858h17.857142857142858a71.42857142857143 71.42857142857143 0 1 0 0 -142.85714285714286h-17.857142857142858v-17.857142857142858A71.42857142857143 71.42857142857143 0 0 0 71.42857142857143 238.89285714285714V53.57142857142857c0 -14.214285714285715 5.642857142857143 -27.857142857142858 15.714285714285715 -37.85714285714286Z" clip-rule="evenodd" stroke-width="1"></path>
        <path id="Vector (Stroke)" fill="#000000" fill-rule="evenodd" d="M116.07142857142857 267.8571428571429a26.785714285714285 26.785714285714285 0 0 1 26.785714285714285 26.785714285714285V357.14285714285717h62.5a26.785714285714285 26.785714285714285 0 0 1 0 53.57142857142857H142.85714285714286v62.5a26.785714285714285 26.785714285714285 0 0 1 -53.57142857142857 0V410.7142857142857H26.785714285714285a26.785714285714285 26.785714285714285 0 0 1 0 -53.57142857142857H89.28571428571429V294.64285714285717a26.785714285714285 26.785714285714285 0 0 1 26.785714285714285 -26.785714285714285Z" clip-rule="evenodd" stroke-width="1"></path>
    </g>
</svg>