<svg xmlns="http://www.w3.org/2000/svg" fill="none" viewBox="0 0 500 500" id="Calendar-Add--Streamline-Core" height="500" width="500"><desc>Calendar Add Streamline Icon: https://streamlinehq.com</desc><g id="calendar-add--add-calendar-date-day-month"><path id="Subtract" fill="#000000" fill-rule="evenodd" d="M125 0a35.714285714285715 35.714285714285715 0 0 1 35.714285714285715 35.714285714285715v35.714285714285715h178.57142857142858V35.714285714285715a35.714285714285715 35.714285714285715 0 0 1 71.42857142857143 0v35.714285714285715h35.714285714285715A53.57142857142857 53.57142857142857 0 0 1 500 125v35.714285714285715H0v-35.714285714285715A53.57142857142857 53.57142857142857 0 0 1 53.57142857142857 71.42857142857143h35.714285714285715V35.714285714285715a35.714285714285715 35.714285714285715 0 0 1 35.714285714285715 -35.714285714285715Z" clip-rule="evenodd" stroke-width="1"></path><path id="Rectangle 481" fill="#5ecd88" d="M0 160.71428571428572h500v285.7142857142857a53.57142857142857 53.57142857142857 0 0 1 -53.57142857142857 53.57142857142857h-392.8571428571429A53.57142857142857 53.57142857142857 0 0 1 0 446.42857142857144v-285.7142857142857Z" stroke-width="1"></path><path id="Union" fill="#000000" fill-rule="evenodd" d="M276.7857142857143 241.07142857142858a26.785714285714285 26.785714285714285 0 0 0 -53.57142857142857 0V303.57142857142856H160.71428571428572a26.785714285714285 26.785714285714285 0 0 0 0 53.57142857142857h62.5v62.5a26.785714285714285 26.785714285714285 0 0 0 53.57142857142857 0V357.14285714285717H339.2857142857143a26.785714285714285 26.785714285714285 0 0 0 0 -53.57142857142857H276.7857142857143V241.07142857142858Z" clip-rule="evenodd" stroke-width="1"></path></g></svg>