<svg xmlns="http://www.w3.org/2000/svg" fill="none" viewBox="0 0 500 500" id="Cut--Streamline-Core" height="500" width="500">
    <desc>Cut Streamline Icon: https://streamlinehq.com</desc>
    <g id="cut--coupon-cut-discount-price-prices-scissors">
        <path id="Union" fill="#000000" fill-rule="evenodd" d="M267.8571428571429 348.2142857142857a26.785714285714285 26.785714285714285 0 0 0 0 53.57142857142857H321.42857142857144a26.785714285714285 26.785714285714285 0 0 0 0 -53.57142857142857H267.8571428571429Zm151.78571428571428 0a26.785714285714285 26.785714285714285 0 0 0 0 53.57142857142857h53.57142857142857a26.785714285714285 26.785714285714285 0 0 0 0 -53.57142857142857h-53.57142857142857Z" clip-rule="evenodd" stroke-width="1"></path>
        <path id="Union_2" fill="#5ecd88" fill-rule="evenodd" d="M107.14285714285714 0a107.14285714285714 107.14285714285714 0 0 0 -43.642857142857146 205L139 250 63.5 295a107.14285714285714 107.14285714285714 0 1 0 96.67857142857143 4.75l31.17857142857143 -18.571428571428573 46.28571428571429 27.53571428571429a26.785714285714285 26.785714285714285 0 1 0 27.392857142857146 -46L243.71428571428572 250l243.2142857142857 -144.85714285714286a26.785714285714285 26.785714285714285 0 0 0 -27.42857142857143 -46L191.35714285714286 218.82142857142858l-31.17857142857143 -18.571428571428573A107.14285714285714 107.14285714285714 0 0 0 107.14285714285714 0Zm-19.500000000000004 157.07142857142856a53.57142857142857 53.57142857142857 0 1 0 -8.214285714285715 -4.071428571428572 26.285714285714285 26.285714285714285 0 0 1 5.714285714285714 2.571428571428571l2.5000000000000004 1.5000000000000002ZM53.57142857142857 392.8571428571429a53.57142857142857 53.57142857142857 0 0 1 25.857142857142858 -45.85714285714286 26.857142857142858 26.857142857142858 0 0 0 5.714285714285714 -2.571428571428571l2.5000000000000004 -1.5000000000000002A53.57142857142857 53.57142857142857 0 1 1 53.57142857142857 392.8571428571429Z" clip-rule="evenodd" stroke-width="1"></path>
    </g>
</svg>