<svg xmlns="http://www.w3.org/2000/svg" fill="none" viewBox="0 0 500 500" id="Inbox-Tray-2--Streamline-Core" height="500" width="500"><desc>Inbox Tray 2 Streamline Icon: https://streamlinehq.com</desc><g id="inbox-tray-2--mail-email-outbox-drawer-empty-open-inbox-arrow-up"><path id="Union" fill="#5ecd88" fill-rule="evenodd" d="M17.857142857142858 297.5a17.857142857142858 17.857142857142858 0 0 0 -17.857142857142858 17.857142857142858v131.07142857142858A53.57142857142857 53.57142857142857 0 0 0 53.57142857142857 500h392.8571428571429a53.57142857142857 53.57142857142857 0 0 0 53.57142857142857 -53.57142857142857V315.3571428571429a17.857142857142858 17.857142857142858 0 0 0 -17.857142857142858 -17.857142857142858h-106.17857142857143a53.57142857142857 53.57142857142857 0 0 0 -53.57142857142857 53.57142857142857c0 34.785714285714285 -34.857142857142854 61.85714285714286 -72.5 61.60714285714286 -36.57142857142858 -0.25 -70.35714285714286 -27.42857142857143 -70.35714285714286 -61.60714285714286a53.57142857142857 53.57142857142857 0 0 0 -53.57142857142857 -53.57142857142857H17.857142857142858Z" clip-rule="evenodd" stroke-width="1"></path><path id="Union_2" fill="#000000" fill-rule="evenodd" d="M339.2857142857143 143.21428571428572a26.785714285714285 26.785714285714285 0 0 0 18.92857142857143 -45.75l-89.28571428571429 -89.28571428571429a26.785714285714285 26.785714285714285 0 0 0 -37.85714285714286 0l-89.28571428571429 89.28571428571429a26.785714285714285 26.785714285714285 0 0 0 18.92857142857143 45.714285714285715h62.5l0 98.21428571428572a26.785714285714285 26.785714285714285 0 1 0 53.57142857142857 0l0 -98.21428571428572H339.2857142857143Z" clip-rule="evenodd" stroke-width="1"></path></g></svg>