<svg xmlns="http://www.w3.org/2000/svg" fill="none" viewBox="0 0 500 500" id="Pathfinder-Minus-Front-1--Streamline-Core" height="500" width="500">
    <desc>Pathfinder Minus Front 1 Streamline Icon: https://streamlinehq.com</desc>
    <g id="pathfinder-minus-front-1">
        <path id="Vector" fill="#5ecd88" d="M303.57142857142856 0h-250A53.57142857142857 53.57142857142857 0 0 0 0 53.57142857142857v250A53.57142857142857 53.57142857142857 0 0 0 53.57142857142857 357.14285714285717h71.42857142857143a35.714285714285715 35.714285714285715 0 0 0 35.714285714285715 -35.714285714285715V178.57142857142858a17.857142857142858 17.857142857142858 0 0 1 17.857142857142858 -17.857142857142858h142.85714285714286a35.714285714285715 35.714285714285715 0 0 0 35.714285714285715 -35.714285714285715v-71.42857142857143A53.57142857142857 53.57142857142857 0 0 0 303.57142857142856 0Z" stroke-width="1"></path>
        <path id="Union" fill="#000000" fill-rule="evenodd" d="M181.17857142857144 181.17857142857144A8.928571428571429 8.928571428571429 0 0 0 178.57142857142858 187.5a26.785714285714285 26.785714285714285 0 0 1 -53.57142857142857 0A62.85714285714286 62.85714285714286 0 0 1 187.5 125a26.785714285714285 26.785714285714285 0 0 1 0 53.57142857142857 8.928571428571429 8.928571428571429 0 0 0 -6.321428571428571 2.607142857142857Zm262.64285714285717 0A8.928571428571429 8.928571428571429 0 0 0 437.5 178.57142857142858a26.785714285714285 26.785714285714285 0 1 1 0 -53.57142857142857A62.85714285714286 62.85714285714286 0 0 1 500 187.5a26.785714285714285 26.785714285714285 0 1 1 -53.57142857142857 0 8.928571428571429 8.928571428571429 0 0 0 -2.607142857142857 -6.321428571428571Zm29.392857142857142 229.53571428571428a27.142857142857142 27.142857142857142 0 0 0 -26.785714285714285 26.785714285714285 8.928571428571429 8.928571428571429 0 0 1 -8.928571428571429 8.928571428571429 26.785714285714285 26.785714285714285 0 1 0 0 53.57142857142857A62.85714285714286 62.85714285714286 0 0 0 500 437.5a27.142857142857142 27.142857142857142 0 0 0 -26.785714285714285 -26.785714285714285Zm-292.0357142857143 33.10714285714286a8.928571428571429 8.928571428571429 0 0 0 6.321428571428571 2.607142857142857 26.785714285714285 26.785714285714285 0 1 1 0 53.57142857142857 62.85714285714286 62.85714285714286 0 0 1 -62.5 -62.5 26.785714285714285 26.785714285714285 0 1 1 53.57142857142857 0c0 2.357142857142857 0.9285714285714286 4.642857142857143 2.607142857142857 6.321428571428571ZM339.2857142857143 446.42857142857144H285.7142857142857A26.785714285714285 26.785714285714285 0 1 0 285.7142857142857 500h53.57142857142857a26.785714285714285 26.785714285714285 0 1 0 0 -53.57142857142857ZM285.7142857142857 125h53.57142857142857a26.785714285714285 26.785714285714285 0 1 1 0 53.57142857142857H285.7142857142857a26.785714285714285 26.785714285714285 0 0 1 0 -53.57142857142857Zm187.5 133.92857142857144a27.142857142857142 27.142857142857142 0 0 0 -26.785714285714285 26.785714285714285v53.57142857142857a26.785714285714285 26.785714285714285 0 1 0 53.57142857142857 0V285.7142857142857a27.142857142857142 27.142857142857142 0 0 0 -26.785714285714285 -26.785714285714285Zm-340.25 7.964285714285714a27.142857142857142 27.142857142857142 0 0 1 18.821428571428573 -7.964285714285714A27.142857142857142 27.142857142857142 0 0 1 178.57142857142858 285.7142857142857v53.57142857142857a26.785714285714285 26.785714285714285 0 1 1 -53.57142857142857 0V285.7142857142857a27.142857142857142 27.142857142857142 0 0 1 7.964285714285714 -18.821428571428573Z" clip-rule="evenodd" stroke-width="1"></path>
    </g>
</svg>