<svg xmlns="http://www.w3.org/2000/svg" fill="none" viewBox="0 0 500 500" id="Paint-Palette--Streamline-Core" height="500" width="500">
    <desc>Paint Palette Streamline Icon: https://streamlinehq.com</desc>
    <g id="paint-palette--color-colors-design-paint-painting-palette">
        <path id="Union" fill="#5ecd88" d="M289.0357142857143 2.357142857142857A250 250 0 0 0 155.35714285714286 20.607142857142858a251.96428571428572 251.96428571428572 0 0 0 -150 212.14285714285717 251.96428571428572 251.96428571428572 0 0 0 119.39285714285714 230.78571428571428A250 250 0 0 0 254.60714285714286 500a242.85714285714286 242.85714285714286 0 0 0 67.03571428571429 -9.25 51.07142857142857 51.07142857142857 0 0 0 36.07142857142857 -54.42857142857143 52.75000000000001 52.75000000000001 0 0 0 -35.35714285714286 -46.142857142857146A53.57142857142857 53.57142857142857 0 0 1 339.2857142857143 285.7142857142857h66.78571428571429c28.67857142857143 0.07142857142857144 56.50000000000001 -14.285714285714286 73.07142857142857 -37.714285714285715a90.21428571428571 90.21428571428571 0 0 0 11.25 -81.5A250 250 0 0 0 289.0357142857143 2.357142857142857Z" stroke-width="1"></path>
        <path id="Ellipse 419" fill="#000000" d="M107.14285714285714 196.42857142857144a53.57142857142857 53.57142857142857 0 1 0 107.14285714285714 0 53.57142857142857 53.57142857142857 0 1 0 -107.14285714285714 0" stroke-width="1"></path>
        <path id="Ellipse 420" fill="#000000" d="M267.8571428571429 142.85714285714286a53.57142857142857 53.57142857142857 0 1 0 107.14285714285714 0 53.57142857142857 53.57142857142857 0 1 0 -107.14285714285714 0" stroke-width="1"></path>
        <path id="Ellipse 418" fill="#000000" d="M125 339.2857142857143a35.714285714285715 35.714285714285715 0 1 0 71.42857142857143 0 35.714285714285715 35.714285714285715 0 1 0 -71.42857142857143 0" stroke-width="1"></path>
    </g>
</svg>

