<svg xmlns="http://www.w3.org/2000/svg" fill="none" viewBox="0 0 500 500" id="Inbox-Tray-1--Streamline-Core" height="500" width="500"><desc>Inbox Tray 1 Streamline Icon: https://streamlinehq.com</desc><g id="inbox-tray-1--mail-email-outbox-drawer-empty-open-inbox-arrow-down"><path id="Union" fill="#5ecd88" fill-rule="evenodd" d="M17.857142857142858 297.5a17.857142857142858 17.857142857142858 0 0 0 -17.857142857142858 17.857142857142858v131.07142857142858A53.57142857142857 53.57142857142857 0 0 0 53.57142857142857 500h392.8571428571429a53.57142857142857 53.57142857142857 0 0 0 53.57142857142857 -53.57142857142857V315.3571428571429a17.857142857142858 17.857142857142858 0 0 0 -17.857142857142858 -17.857142857142858h-106.17857142857143a53.57142857142857 53.57142857142857 0 0 0 -53.57142857142857 53.57142857142857c0 34.785714285714285 -34.857142857142854 61.85714285714286 -72.5 61.60714285714286 -36.57142857142858 -0.25 -70.35714285714286 -27.42857142857143 -70.35714285714286 -61.60714285714286a53.57142857142857 53.57142857142857 0 0 0 -53.57142857142857 -53.57142857142857H17.857142857142858Z" clip-rule="evenodd" stroke-width="1"></path><path id="Union_2" fill="#000000" fill-rule="evenodd" d="M276.7857142857143 27.142857142857142a26.785714285714285 26.785714285714285 0 1 0 -53.57142857142857 0v98.21428571428572H160.71428571428572a26.785714285714285 26.785714285714285 0 0 0 -18.92857142857143 45.714285714285715l89.28571428571429 89.28571428571429a26.785714285714285 26.785714285714285 0 0 0 37.85714285714286 0l89.28571428571429 -89.28571428571429a26.785714285714285 26.785714285714285 0 0 0 -18.92857142857143 -45.714285714285715H276.7857142857143V27.142857142857142Z" clip-rule="evenodd" stroke-width="1"></path></g></svg>