<svg xmlns="http://www.w3.org/2000/svg" fill="none" viewBox="0 0 500 500" id="Expand--Streamline-Core" height="500" width="500"><desc>Expand Streamline Icon: https://streamlinehq.com</desc><g id="expand--big-bigger-design-expand-larger-resize-size-square"><path id="Rectangle 595" fill="#000000" d="M124.99892857142856 178.55392857142857c0 -29.586785714285714 23.98464285714286 -53.57142857142857 53.57142857142857 -53.57142857142857h142.85714285714286c29.586785714285714 0 53.5725 23.98464285714286 53.5725 53.57142857142857v142.85714285714286c0 29.586785714285714 -23.985714285714284 53.57107142857143 -53.5725 53.57107142857143h-142.85714285714286c-29.586785714285714 0 -53.57142857142857 -23.984285714285715 -53.57142857142857 -53.57107142857143v-142.85714285714286Z" stroke-width="1"></path><path id="Union" fill="#5ecd88" fill-rule="evenodd" d="M53.57142857142857 62.5c0 -4.931071428571428 3.9975 -8.928571428571429 8.928571428571429 -8.928571428571429h17.857142857142858c14.793214285714287 0 26.785714285714285 -11.9925 26.785714285714285 -26.785714285714285C107.14285714285714 11.992357142857141 95.15035714285715 0 80.35714285714286 0h-17.857142857142858C27.98221428571429 0 0 27.98221428571429 0 62.5v17.857142857142858c0 14.793214285714287 11.992357142857141 26.785714285714285 26.785714285714285 26.785714285714285 14.793214285714287 0 26.785714285714285 -11.9925 26.785714285714285 -26.785714285714285v-17.857142857142858ZM419.64285714285717 0c-14.792857142857144 0 -26.785714285714285 11.992357142857141 -26.785714285714285 26.785714285714285 0 14.793214285714287 11.992857142857142 26.785714285714285 26.785714285714285 26.785714285714285h17.857142857142858c4.932142857142857 0 8.928571428571429 3.9975 8.928571428571429 8.928571428571429v17.857142857142858c0 14.793214285714287 11.992857142857142 26.785714285714285 26.785714285714285 26.785714285714285s26.785714285714285 -11.9925 26.785714285714285 -26.785714285714285v-17.857142857142858C500 27.98221428571429 472.01785714285717 0 437.5 0h-17.857142857142858Zm53.57142857142857 392.8571428571429c14.792857142857144 0 26.785714285714285 11.992857142857142 26.785714285714285 26.785714285714285v17.857142857142858c0 34.517857142857146 -27.982142857142858 62.5 -62.5 62.5h-17.857142857142858c-14.792857142857144 0 -26.785714285714285 -11.992857142857142 -26.785714285714285 -26.785714285714285s11.992857142857142 -26.785714285714285 26.785714285714285 -26.785714285714285h17.857142857142858c4.932142857142857 0 8.928571428571429 -3.9964285714285714 8.928571428571429 -8.928571428571429v-17.857142857142858c0 -14.792857142857144 11.992857142857142 -26.785714285714285 26.785714285714285 -26.785714285714285Zm-419.6385714285714 26.785714285714285c0 -14.792857142857144 -11.992142857142857 -26.785714285714285 -26.78564285714286 -26.785714285714285 -14.79332142857143 0 -26.785711785714287 11.992857142857142 -26.785711785714287 26.785714285714285v17.857142857142858c0 34.517857142857146 27.982211785714288 62.5 62.49992607142857 62.5h17.857142857142858c14.793571428571429 0 26.785714285714285 -11.992857142857142 26.785714285714285 -26.785714285714285s-11.992142857142857 -26.785714285714285 -26.785714285714285 -26.785714285714285h-17.857142857142858c-4.931071428571428 0 -8.928571428571429 -3.9964285714285714 -8.928571428571429 -8.928571428571429v-17.857142857142858ZM187.5 473.2142857142857c0 -14.792857142857144 11.9925 -26.785714285714285 26.785714285714285 -26.785714285714285h71.42857142857143c14.793214285714287 0 26.785714285714285 11.992857142857142 26.785714285714285 26.785714285714285S300.50750000000005 500 285.7142857142857 500H214.28571428571428c-14.793214285714287 0 -26.785714285714285 -11.992857142857142 -26.785714285714285 -26.785714285714285ZM214.28571428571428 0c-14.793214285714287 0 -26.785714285714285 11.992357142857141 -26.785714285714285 26.785714285714285 0 14.793214285714287 11.9925 26.785714285714285 26.785714285714285 26.785714285714285h71.42857142857143c14.793214285714287 0 26.785714285714285 -11.9925 26.785714285714285 -26.785714285714285C312.5 11.992357142857141 300.50750000000005 0 285.7142857142857 0H214.28571428571428ZM26.785714285714285 187.5c14.793214285714287 0 26.785714285714285 11.9925 26.785714285714285 26.785714285714285v71.42857142857143c0 14.793214285714287 -11.9925 26.785714285714285 -26.785714285714285 26.785714285714285C11.992357142857141 312.5 0 300.50750000000005 0 285.7142857142857V214.28571428571428c0 -14.793214285714287 11.992357142857141 -26.785714285714285 26.785714285714285 -26.785714285714285ZM500 214.28571428571428c0 -14.793214285714287 -11.992857142857142 -26.785714285714285 -26.785714285714285 -26.785714285714285s-26.785714285714285 11.9925 -26.785714285714285 26.785714285714285v71.42857142857143c0 14.793214285714287 11.992857142857142 26.785714285714285 26.785714285714285 26.785714285714285S500 300.50750000000005 500 285.7142857142857V214.28571428571428Z" clip-rule="evenodd" stroke-width="1"></path></g></svg>