<svg xmlns="http://www.w3.org/2000/svg" fill="none" viewBox="0 0 500 500" id="Justice-Hammer--Streamline-Core" height="500" width="500">
    <desc>Justice Hammer Streamline Icon: https://streamlinehq.com</desc>
    <g id="justice-hammer--hammer-work-mallet-office-company-gavel-justice-judge-arbitration-court">
        <path id="Subtract" fill="#5ecd88" fill-rule="evenodd" d="M47.535714285714285 379.64285714285717a17.857142857142858 17.857142857142858 0 0 1 17.857142857142858 -17.857142857142858h196.42857142857144a17.857142857142858 17.857142857142858 0 0 1 17.857142857142858 17.857142857142858v62.5h-232.14285714285714v-62.5Z" clip-rule="evenodd" stroke-width="1"></path>
        <path id="Subtract_2" fill="#000000" fill-rule="evenodd" d="m316.07142857142856 235.07142857142858 37.85714285714286 -37.85714285714286L489.2857142857143 332.5a26.785714285714285 26.785714285714285 0 1 1 -37.85714285714286 37.85714285714286L316.07142857142856 235.07142857142858Z" clip-rule="evenodd" stroke-width="1"></path>
        <path id="Vector (Stroke)" fill="#000000" fill-rule="evenodd" d="M2.8928571428571432 468.92857142857144a26.785714285714285 26.785714285714285 0 0 1 26.785714285714285 -26.785714285714285h267.8571428571429a26.785714285714285 26.785714285714285 0 0 1 0 53.57142857142857h-267.8571428571429a26.785714285714285 26.785714285714285 0 0 1 -26.785714285714285 -26.785714285714285Z" clip-rule="evenodd" stroke-width="1"></path>
        <path id="Union" fill="#5ecd88" d="M138.46428571428572 148a53.57142857142857 53.57142857142857 0 0 0 0 75.78571428571428l56.57142857142858 56.535714285714285a53.57142857142857 53.57142857142857 0 0 0 75.75 0l128.03571428571428 -128.03571428571428a53.57142857142857 53.57142857142857 0 0 0 0 -75.71428571428572L342.2857142857143 19.92857142857143a53.57142857142857 53.57142857142857 0 0 0 -75.78571428571428 0L138.46428571428572 148Z" stroke-width="1"></path>
    </g>
</svg>

