<svg xmlns="http://www.w3.org/2000/svg" fill="none" viewBox="0 0 500 500" id="Logout-1--Streamline-Core" height="500" width="500">
    <desc>Logout 1 Streamline Icon: https://streamlinehq.com</desc>
    <g id="logout-1--arrow-exit-frame-leave-logout-rectangle-right">
        <path id="Subtract" fill="#5ecd88" fill-rule="evenodd" d="M53.57142857142857 0A53.57142857142857 53.57142857142857 0 0 0 0 53.57142857142857v392.8571428571429A53.57142857142857 53.57142857142857 0 0 0 53.57142857142857 500h250a53.57142857142857 53.57142857142857 0 0 0 53.57142857142857 -53.57142857142857v-69.25a71.42857142857143 71.42857142857143 0 0 1 -26.214285714285715 -46.82142857142857H205.35714285714286a80.35714285714286 80.35714285714286 0 0 1 0 -160.71428571428572h125.57142857142857A71.42857142857143 71.42857142857143 0 0 1 357.14285714285717 122.82142857142858V53.57142857142857A53.57142857142857 53.57142857142857 0 0 0 303.57142857142856 0h-250Z" clip-rule="evenodd" stroke-width="1"></path>
        <path id="Union" fill="#000000" fill-rule="evenodd" d="M375 178.57142857142858a26.785714285714285 26.785714285714285 0 0 1 45.714285714285715 -18.92857142857143l71.42857142857143 71.42857142857143a26.785714285714285 26.785714285714285 0 0 1 0 37.85714285714286l-71.42857142857143 71.42857142857143A26.785714285714285 26.785714285714285 0 0 1 375 321.42857142857144V285.7142857142857H205.35714285714286a35.714285714285715 35.714285714285715 0 1 1 0 -71.42857142857143h169.64285714285714V178.57142857142858Z" clip-rule="evenodd" stroke-width="1"></path>
    </g>
</svg>  