<svg xmlns="http://www.w3.org/2000/svg" fill="none" viewBox="0 0 500 500" id="Recycle-Bin-2--Streamline-Core" height="500" width="500">
    <desc>Recycle Bin 2 Streamline Icon: https://streamlinehq.com</desc>
    <g id="recycle-bin-2--remove-delete-empty-bin-trash-garbage">
        <path id="Union" fill="#5ecd88" fill-rule="evenodd" d="M89.28571428571429 100.82142857142857a17.857142857142858 17.857142857142858 0 0 0 -17.857142857142858 17.857142857142858v326.60714285714283c0 14.285714285714286 5.571428571428571 28.000000000000004 15.607142857142858 38.17857142857143 10.000000000000002 10.178571428571429 23.67857142857143 15.964285714285715 37.964285714285715 15.964285714285715h250c14.285714285714286 0 27.964285714285715 -5.7857142857142865 37.964285714285715 -15.964285714285715 10.000000000000002 -10.178571428571429 15.607142857142858 -23.92857142857143 15.607142857142858 -38.214285714285715V118.71428571428571a17.857142857142858 17.857142857142858 0 0 0 -17.857142857142858 -17.857142857142858h-321.42857142857144Z" clip-rule="evenodd" stroke-width="1"></path>
        <path id="Union_2" fill="#000000" fill-rule="evenodd" d="M200.89285714285714 254.42857142857142a22.321428571428573 22.321428571428573 0 1 0 -44.642857142857146 0v142.92857142857142a22.321428571428573 22.321428571428573 0 0 0 44.642857142857146 0V254.42857142857142Zm142.85714285714286 0a22.321428571428573 22.321428571428573 0 1 0 -44.642857142857146 0v142.92857142857142a22.321428571428573 22.321428571428573 0 0 0 44.642857142857146 0V254.42857142857142Z" clip-rule="evenodd" stroke-width="1"></path>
        <path id="Union_3" fill="#000000" fill-rule="evenodd" d="M250 53.57142857142857a62.5 62.5 0 0 0 -59.892857142857146 44.642857142857146h119.78571428571429A62.5 62.5 0 0 0 250 53.57142857142857Zm114.67857142857143 44.642857142857146a116.07142857142857 116.07142857142857 0 0 0 -229.35714285714286 0H35.714285714285715a26.785714285714285 26.785714285714285 0 0 0 0 53.57142857142857h428.57142857142856a26.785714285714285 26.785714285714285 0 0 0 0 -53.57142857142857h-99.60714285714286Z" clip-rule="evenodd" stroke-width="1"></path>
    </g>
</svg>