<svg xmlns="http://www.w3.org/2000/svg" fill="none" viewBox="0 0 500 500" id="Login-1--Streamline-Core" height="500" width="500">
    <desc>Login 1 Streamline Icon: https://streamlinehq.com</desc>
    <g id="login-1--arrow-enter-frame-left-login-point-rectangle">
        <path id="Subtract" fill="#5ecd88" fill-rule="evenodd" d="M53.57142857142857 0A53.57142857142857 53.57142857142857 0 0 0 0 53.57142857142857v392.8571428571429A53.57142857142857 53.57142857142857 0 0 0 53.57142857142857 500h250a53.57142857142857 53.57142857142857 0 0 0 53.57142857142857 -53.57142857142857V330.3571428571429h-18.42857142857143a71.42857142857143 71.42857142857143 0 0 1 -121.35714285714286 41.57142857142857l-71.42857142857143 -71.42857142857143a71.42857142857143 71.42857142857143 0 0 1 0 -101l71.42857142857143 -71.42857142857143A71.42857142857143 71.42857142857143 0 0 1 338.7142857142857 169.64285714285714H357.14285714285717V53.57142857142857A53.57142857142857 53.57142857142857 0 0 0 303.57142857142856 0h-250Z" clip-rule="evenodd" stroke-width="1"></path>
        <path id="Union" fill="#000000" fill-rule="evenodd" d="M294.64285714285717 178.57142857142858a26.785714285714285 26.785714285714285 0 0 0 -45.714285714285715 -18.92857142857143l-71.42857142857143 71.42857142857143a26.785714285714285 26.785714285714285 0 0 0 0 37.85714285714286l71.42857142857143 71.42857142857143A26.785714285714285 26.785714285714285 0 0 0 294.64285714285717 321.42857142857144V285.7142857142857H464.2857142857143a35.714285714285715 35.714285714285715 0 1 0 0 -71.42857142857143H294.64285714285717V178.57142857142858Z" clip-rule="evenodd" stroke-width="1"></path>
    </g>
</svg>