<svg xmlns="http://www.w3.org/2000/svg" fill="none" viewBox="0 0 500 500" id="Front-Camera--Streamline-Core" height="500" width="500">
    <desc>Front Camera Streamline Icon: https://streamlinehq.com</desc>
    <g id="front-camera">
        <path id="Union" fill="#5ecd88" d="M178.57142857142858 35.714285714285715a17.857142857142858 17.857142857142858 0 0 0 -14.285714285714286 7.142857142857143L116.07142857142857 107.14285714285714H53.57142857142857A53.57142857142857 53.57142857142857 0 0 0 0 160.71428571428572v250A53.57142857142857 53.57142857142857 0 0 0 53.57142857142857 464.2857142857143h392.8571428571429a53.57142857142857 53.57142857142857 0 0 0 53.57142857142857 -53.57142857142857v-250A53.57142857142857 53.57142857142857 0 0 0 446.42857142857144 107.14285714285714h-62.5L335.7142857142857 42.857142857142854A17.857142857142858 17.857142857142858 0 0 0 321.42857142857144 35.714285714285715H178.57142857142858Z" stroke-width="1"></path>
        <path id="Union_2" fill="#000000" fill-rule="evenodd" d="M196.42857142857144 223.21428571428572a26.785714285714285 26.785714285714285 0 1 1 -53.57142857142857 0 26.785714285714285 26.785714285714285 0 0 1 53.57142857142857 0ZM147.03571428571428 300.42857142857144a22.321428571428573 22.321428571428573 0 0 1 31.571428571428573 0.25c12.785714285714285 13.035714285714286 37.107142857142854 26.5 71.32142857142858 26.5 34.285714285714285 0 58.57142857142857 -13.464285714285715 71.35714285714286 -26.5a22.321428571428573 22.321428571428573 0 1 1 31.821428571428573 31.321428571428573c-21.214285714285715 21.571428571428573 -57.00000000000001 39.82142857142857 -103.17857142857143 39.82142857142857 -46.142857142857146 0 -81.92857142857143 -18.214285714285715 -103.14285714285714 -39.82142857142857a22.321428571428573 22.321428571428573 0 0 1 0.25 -31.571428571428573ZM330.3571428571429 250a26.785714285714285 26.785714285714285 0 1 0 0 -53.57142857142857 26.785714285714285 26.785714285714285 0 0 0 0 53.57142857142857Z" clip-rule="evenodd" stroke-width="1"></path>
    </g>
</svg>