<svg xmlns="http://www.w3.org/2000/svg" fill="none" viewBox="0 0 500 500" id="Application-Add--Streamline-Core" height="500" width="500"><desc>Application Add Streamline Icon: https://streamlinehq.com</desc><g id="application-add--application-new-add-square"><path id="Union" fill="#5ecd88" fill-rule="evenodd" d="M173.07142857142858 0h-134.64285714285714C17.25 0 0 17.214285714285715 0 38.464285714285715v134.64285714285714c0 21.214285714285715 17.214285714285715 38.42857142857143 38.464285714285715 38.42857142857143h134.64285714285714c21.214285714285715 0 38.42857142857143 -17.214285714285715 38.42857142857143 -38.464285714285715v-134.64285714285714C211.5357142857143 17.25 194.32142857142858 0 173.07142857142858 0Zm288.4642857142857 288.4642857142857h-134.64285714285714c-21.214285714285715 0 -38.42857142857143 17.214285714285715 -38.42857142857143 38.464285714285715v134.64285714285714c0 21.214285714285715 17.214285714285715 38.42857142857143 38.464285714285715 38.42857142857143h134.64285714285714c21.214285714285715 0 38.42857142857143 -17.214285714285715 38.42857142857143 -38.464285714285715v-134.64285714285714c0 -21.214285714285715 -17.214285714285715 -38.42857142857143 -38.464285714285715 -38.42857142857143Zm-423.0714285714286 0h134.64285714285714c21.214285714285715 0 38.42857142857143 17.214285714285715 38.42857142857143 38.464285714285715v134.64285714285714c0 21.214285714285715 -17.214285714285715 38.42857142857143 -38.464285714285715 38.42857142857143h-134.64285714285714A38.464285714285715 38.464285714285715 0 0 1 0 461.5357142857143v-134.64285714285714c0 -21.214285714285715 17.214285714285715 -38.42857142857143 38.464285714285715 -38.42857142857143Z" clip-rule="evenodd" stroke-width="1"></path><path id="Union_2" fill="#000000" fill-rule="evenodd" d="M411.07142857142856 26.785714285714285a26.785714285714285 26.785714285714285 0 1 0 -53.57142857142857 0v61.892857142857146H295.67857142857144a26.785714285714285 26.785714285714285 0 1 0 0 53.57142857142857h61.892857142857146v61.85714285714286a26.785714285714285 26.785714285714285 0 0 0 53.57142857142857 0V142.25h61.85714285714286a26.785714285714285 26.785714285714285 0 1 0 0 -53.57142857142857h-61.85714285714286V26.785714285714285Z" clip-rule="evenodd" stroke-width="1"></path></g></svg>