<svg xmlns="http://www.w3.org/2000/svg" fill="none" viewBox="0 0 500 500" id="Shuffle--Streamline-Flex" height="500" width="500">
    <desc>Shuffle Streamline Icon: https://streamlinehq.com</desc>
    <g id="shuffle--multimedia-shuffle-multi-button-controls-media">
        <path id="Union" fill="#000000" fill-rule="evenodd" d="M385.31428571428575 220.54857142857145c-5.560714285714286 -7.301428571428572 -6.735714285714286 -17.065357142857142 -3.442857142857143 -25.644642857142856 1.7857142857142858 -4.649285714285714 3.717857142857143 -10.216785714285715 5.457142857142857 -16.33142857142857H357.14285714285717c-22.4825 0 -43.65321428571429 10.584999999999999 -57.142857142857146 28.571428571428573l-96.42857142857143 128.57142857142858C176.59214285714287 371.68571428571425 134.25107142857144 392.8571428571429 89.28571428571429 392.8571428571429h-35.714285714285715c-19.724464285714287 0 -35.714285714285715 -15.989285714285714 -35.714285714285715 -35.714285714285715 0 -19.72357142857143 15.989821428571428 -35.71357142857143 35.714285714285715 -35.71357142857143h35.714285714285715c22.4825 0 43.65321428571429 -10.584999999999999 57.142857142857146 -28.57107142857143l96.42857142857143 -128.57142857142858c26.979285714285716 -35.972500000000004 69.32035714285715 -57.142857142857146 114.28571428571429 -57.142857142857146h30.017857142857146c-1.6964285714285714 -5.883928571428572 -3.5607142857142855 -11.244285714285715 -5.289285714285715 -15.744285714285715 -3.292857142857143 -8.579285714285714 -2.117857142857143 -18.343214285714286 3.442857142857143 -25.644642857142856 6.125000000000001 -8.0425 17.042857142857144 -12.041785714285716 27.985714285714284 -7.864642857142857 15.589285714285715 5.95 30.40714285714286 17.88464285714286 42.125 31.708214285714288 11.810714285714285 13.931071428571428 21.678571428571427 31.191428571428574 26.185714285714287 49.222142857142856 0.7107142857142857 2.8435714285714284 0.7107142857142857 5.818571428571429 0 8.662142857142857 -4.507142857142857 18.03107142857143 -14.375000000000002 35.291428571428575 -26.185714285714287 49.222500000000004 -11.717857142857143 13.823214285714286 -26.535714285714285 25.757857142857144 -42.125 31.707857142857147 -10.942857142857143 4.177142857142857 -21.860714285714284 0.17785714285714285 -27.985714285714284 -7.864642857142857Z" clip-rule="evenodd" stroke-width="1"></path>
        <path id="Union_2" fill="#8fbffa" fill-rule="evenodd" d="M53.73714285714286 107.14285714285714C34.01264285714286 107.14285714285714 18.022821428571426 123.13285714285715 18.022821428571426 142.85714285714286S34.01264285714286 178.57142857142858 53.73714285714286 178.57142857142858h35.54678571428572c22.4825 0 43.65321428571429 10.585357142857143 57.142857142857146 28.571428571428573l96.42857142857143 128.57142857142858c26.979285714285716 35.971428571428575 69.32035714285715 57.142857142857146 114.28571428571429 57.142857142857146h30.18392857142857c-1.7392857142857143 6.114285714285714 -3.667857142857143 11.682142857142857 -5.453571428571429 16.332142857142856 -3.2964285714285713 8.57857142857143 -2.1214285714285714 18.34285714285714 3.439285714285714 25.642857142857142 6.125000000000001 8.042857142857143 17.042857142857144 12.042857142857143 27.989285714285714 7.864285714285715 15.585714285714287 -5.95 30.40357142857143 -17.88214285714286 42.121428571428574 -31.70714285714286 11.810714285714285 -13.928571428571429 21.678571428571427 -31.189285714285713 26.185714285714287 -49.221428571428575 0.7107142857142857 -2.842857142857143 0.7107142857142857 -5.818571428571429 0 -8.662142857142857 -4.507142857142857 -18.03107142857143 -14.375000000000002 -35.291428571428575 -26.185714285714287 -49.222500000000004 -11.717857142857143 -13.823214285714286 -26.535714285714285 -25.757857142857144 -42.121428571428574 -31.707857142857147 -10.946428571428571 -4.177142857142857 -21.864285714285714 -0.17785714285714285 -27.989285714285714 7.864642857142857 -5.560714285714286 7.301428571428572 -6.735714285714286 17.065 -3.439285714285714 25.644642857142856 1.7285714285714286 4.499642857142857 3.592857142857143 9.86 5.285714285714286 15.743928571428572h-30.01607142857143c-22.482857142857142 0 -43.65321428571429 -10.585357142857143 -57.142857142857146 -28.571428571428573l-96.42857142857143 -128.57142857142858c-26.979285714285716 -35.972142857142856 -69.32035714285715 -57.142857142857146 -114.28571428571429 -57.142857142857146h-35.54678571428572Z" clip-rule="evenodd" stroke-width="1"></path>
    </g>
</svg>


