<svg xmlns="http://www.w3.org/2000/svg" fill="none" viewBox="0 0 500 500" id="Sort-Descending--Streamline-Core" height="500" width="500">
    <desc>Sort Descending Streamline Icon: https://streamlinehq.com</desc>
    <g id="sort-descending">
        <path id="Union" fill="#8fbffa" fill-rule="evenodd" d="M26.785714285714285 0a26.785714285714285 26.785714285714285 0 1 0 0 53.57142857142857h232.14285714285714a26.785714285714285 26.785714285714285 0 0 0 0 -53.57142857142857H26.785714285714285ZM89.28571428571429 133.92857142857144A26.785714285714285 26.785714285714285 0 0 1 116.07142857142857 107.14285714285714h142.85714285714286a26.785714285714285 26.785714285714285 0 0 1 0 53.57142857142857h-142.85714285714286a26.785714285714285 26.785714285714285 0 0 1 -26.785714285714285 -26.785714285714285Zm71.42857142857143 107.14285714285714A26.785714285714285 26.785714285714285 0 0 1 187.5 214.28571428571428h71.42857142857143a26.785714285714285 26.785714285714285 0 0 1 0 53.57142857142857h-71.42857142857143a26.785714285714285 26.785714285714285 0 0 1 -26.785714285714285 -26.785714285714285Z" clip-rule="evenodd" stroke-width="1"></path>
        <path id="Union_2" fill="#000000" fill-rule="evenodd" d="M419.64285714285717 35.714285714285715a35.714285714285715 35.714285714285715 0 1 0 -71.42857142857143 0v321.42857142857144h-53.57142857142857a26.785714285714285 26.785714285714285 0 0 0 -18.92857142857143 45.714285714285715l89.28571428571429 89.28571428571429a26.785714285714285 26.785714285714285 0 0 0 37.85714285714286 0l89.28571428571429 -89.28571428571429a26.785714285714285 26.785714285714285 0 0 0 -18.92857142857143 -45.714285714285715h-53.57142857142857V35.714285714285715Z" clip-rule="evenodd" stroke-width="1"></path>
    </g>
</svg>
